G04 #@! TF.GenerationSoftware,KiCad,Pcbnew,(5.1.2)-2*
G04 #@! TF.CreationDate,2019-07-05T08:21:06+01:00*
G04 #@! TF.ProjectId,mod_synth_clk,6d6f645f-7379-46e7-9468-5f636c6b2e6b,rev?*
G04 #@! TF.SameCoordinates,Original*
G04 #@! TF.FileFunction,Soldermask,Top*
G04 #@! TF.FilePolarity,Negative*
%FSLAX46Y46*%
G04 Gerber Fmt 4.6, Leading zero omitted, Abs format (unit mm)*
G04 Created by KiCad (PCBNEW (5.1.2)-2) date 2019-07-05 08:21:06*
%MOMM*%
%LPD*%
G04 APERTURE LIST*
%ADD10C,0.100000*%
G04 APERTURE END LIST*
D10*
G36*
X52293655Y-130992591D02*
G01*
X52365525Y-131006887D01*
X52568624Y-131091013D01*
X52751409Y-131213146D01*
X52906854Y-131368591D01*
X53028987Y-131551376D01*
X53113113Y-131754475D01*
X53156000Y-131970084D01*
X53156000Y-132189916D01*
X53113113Y-132405525D01*
X53028987Y-132608624D01*
X52906854Y-132791409D01*
X52751409Y-132946854D01*
X52568624Y-133068987D01*
X52365525Y-133153113D01*
X52293655Y-133167409D01*
X52149918Y-133196000D01*
X51930082Y-133196000D01*
X51786345Y-133167409D01*
X51714475Y-133153113D01*
X51511376Y-133068987D01*
X51328591Y-132946854D01*
X51173146Y-132791409D01*
X51051013Y-132608624D01*
X50966887Y-132405525D01*
X50924000Y-132189916D01*
X50924000Y-131970084D01*
X50966887Y-131754475D01*
X51051013Y-131551376D01*
X51173146Y-131368591D01*
X51328591Y-131213146D01*
X51511376Y-131091013D01*
X51714475Y-131006887D01*
X51786345Y-130992591D01*
X51930082Y-130964000D01*
X52149918Y-130964000D01*
X52293655Y-130992591D01*
X52293655Y-130992591D01*
G37*
G36*
X43993655Y-130992591D02*
G01*
X44065525Y-131006887D01*
X44268624Y-131091013D01*
X44451409Y-131213146D01*
X44606854Y-131368591D01*
X44728987Y-131551376D01*
X44813113Y-131754475D01*
X44856000Y-131970084D01*
X44856000Y-132189916D01*
X44813113Y-132405525D01*
X44728987Y-132608624D01*
X44606854Y-132791409D01*
X44451409Y-132946854D01*
X44268624Y-133068987D01*
X44065525Y-133153113D01*
X43993655Y-133167409D01*
X43849918Y-133196000D01*
X43630082Y-133196000D01*
X43486345Y-133167409D01*
X43414475Y-133153113D01*
X43211376Y-133068987D01*
X43028591Y-132946854D01*
X42873146Y-132791409D01*
X42751013Y-132608624D01*
X42666887Y-132405525D01*
X42624000Y-132189916D01*
X42624000Y-131970084D01*
X42666887Y-131754475D01*
X42751013Y-131551376D01*
X42873146Y-131368591D01*
X43028591Y-131213146D01*
X43211376Y-131091013D01*
X43414475Y-131006887D01*
X43486345Y-130992591D01*
X43630082Y-130964000D01*
X43849918Y-130964000D01*
X43993655Y-130992591D01*
X43993655Y-130992591D01*
G37*
G36*
X41606000Y-133096000D02*
G01*
X39674000Y-133096000D01*
X39674000Y-131064000D01*
X41606000Y-131064000D01*
X41606000Y-133096000D01*
X41606000Y-133096000D01*
G37*
G36*
X46634600Y-117754600D02*
G01*
X44805400Y-117754600D01*
X44805400Y-115925400D01*
X46634600Y-115925400D01*
X46634600Y-117754600D01*
X46634600Y-117754600D01*
G37*
G36*
X48439294Y-115938633D02*
G01*
X48611695Y-115990931D01*
X48770583Y-116075858D01*
X48909849Y-116190151D01*
X49024142Y-116329417D01*
X49109069Y-116488305D01*
X49161367Y-116660706D01*
X49179025Y-116840000D01*
X49161367Y-117019294D01*
X49109069Y-117191695D01*
X49024142Y-117350583D01*
X48909849Y-117489849D01*
X48770583Y-117604142D01*
X48611695Y-117689069D01*
X48439294Y-117741367D01*
X48304931Y-117754600D01*
X48215069Y-117754600D01*
X48080706Y-117741367D01*
X47908305Y-117689069D01*
X47749417Y-117604142D01*
X47610151Y-117489849D01*
X47495858Y-117350583D01*
X47410931Y-117191695D01*
X47358633Y-117019294D01*
X47340975Y-116840000D01*
X47358633Y-116660706D01*
X47410931Y-116488305D01*
X47495858Y-116329417D01*
X47610151Y-116190151D01*
X47749417Y-116075858D01*
X47908305Y-115990931D01*
X48080706Y-115938633D01*
X48215069Y-115925400D01*
X48304931Y-115925400D01*
X48439294Y-115938633D01*
X48439294Y-115938633D01*
G37*
G36*
X48439294Y-113398633D02*
G01*
X48611695Y-113450931D01*
X48770583Y-113535858D01*
X48909849Y-113650151D01*
X49024142Y-113789417D01*
X49109069Y-113948305D01*
X49161367Y-114120706D01*
X49179025Y-114300000D01*
X49161367Y-114479294D01*
X49109069Y-114651695D01*
X49024142Y-114810583D01*
X48909849Y-114949849D01*
X48770583Y-115064142D01*
X48611695Y-115149069D01*
X48439294Y-115201367D01*
X48304931Y-115214600D01*
X48215069Y-115214600D01*
X48080706Y-115201367D01*
X47908305Y-115149069D01*
X47749417Y-115064142D01*
X47610151Y-114949849D01*
X47495858Y-114810583D01*
X47410931Y-114651695D01*
X47358633Y-114479294D01*
X47340975Y-114300000D01*
X47358633Y-114120706D01*
X47410931Y-113948305D01*
X47495858Y-113789417D01*
X47610151Y-113650151D01*
X47749417Y-113535858D01*
X47908305Y-113450931D01*
X48080706Y-113398633D01*
X48215069Y-113385400D01*
X48304931Y-113385400D01*
X48439294Y-113398633D01*
X48439294Y-113398633D01*
G37*
G36*
X45899294Y-113398633D02*
G01*
X46071695Y-113450931D01*
X46230583Y-113535858D01*
X46369849Y-113650151D01*
X46484142Y-113789417D01*
X46569069Y-113948305D01*
X46621367Y-114120706D01*
X46639025Y-114300000D01*
X46621367Y-114479294D01*
X46569069Y-114651695D01*
X46484142Y-114810583D01*
X46369849Y-114949849D01*
X46230583Y-115064142D01*
X46071695Y-115149069D01*
X45899294Y-115201367D01*
X45764931Y-115214600D01*
X45675069Y-115214600D01*
X45540706Y-115201367D01*
X45368305Y-115149069D01*
X45209417Y-115064142D01*
X45070151Y-114949849D01*
X44955858Y-114810583D01*
X44870931Y-114651695D01*
X44818633Y-114479294D01*
X44800975Y-114300000D01*
X44818633Y-114120706D01*
X44870931Y-113948305D01*
X44955858Y-113789417D01*
X45070151Y-113650151D01*
X45209417Y-113535858D01*
X45368305Y-113450931D01*
X45540706Y-113398633D01*
X45675069Y-113385400D01*
X45764931Y-113385400D01*
X45899294Y-113398633D01*
X45899294Y-113398633D01*
G37*
G36*
X45899294Y-110858633D02*
G01*
X46071695Y-110910931D01*
X46230583Y-110995858D01*
X46369849Y-111110151D01*
X46484142Y-111249417D01*
X46569069Y-111408305D01*
X46621367Y-111580706D01*
X46639025Y-111760000D01*
X46621367Y-111939294D01*
X46569069Y-112111695D01*
X46484142Y-112270583D01*
X46369849Y-112409849D01*
X46230583Y-112524142D01*
X46071695Y-112609069D01*
X45899294Y-112661367D01*
X45764931Y-112674600D01*
X45675069Y-112674600D01*
X45540706Y-112661367D01*
X45368305Y-112609069D01*
X45209417Y-112524142D01*
X45070151Y-112409849D01*
X44955858Y-112270583D01*
X44870931Y-112111695D01*
X44818633Y-111939294D01*
X44800975Y-111760000D01*
X44818633Y-111580706D01*
X44870931Y-111408305D01*
X44955858Y-111249417D01*
X45070151Y-111110151D01*
X45209417Y-110995858D01*
X45368305Y-110910931D01*
X45540706Y-110858633D01*
X45675069Y-110845400D01*
X45764931Y-110845400D01*
X45899294Y-110858633D01*
X45899294Y-110858633D01*
G37*
G36*
X48439294Y-110858633D02*
G01*
X48611695Y-110910931D01*
X48770583Y-110995858D01*
X48909849Y-111110151D01*
X49024142Y-111249417D01*
X49109069Y-111408305D01*
X49161367Y-111580706D01*
X49179025Y-111760000D01*
X49161367Y-111939294D01*
X49109069Y-112111695D01*
X49024142Y-112270583D01*
X48909849Y-112409849D01*
X48770583Y-112524142D01*
X48611695Y-112609069D01*
X48439294Y-112661367D01*
X48304931Y-112674600D01*
X48215069Y-112674600D01*
X48080706Y-112661367D01*
X47908305Y-112609069D01*
X47749417Y-112524142D01*
X47610151Y-112409849D01*
X47495858Y-112270583D01*
X47410931Y-112111695D01*
X47358633Y-111939294D01*
X47340975Y-111760000D01*
X47358633Y-111580706D01*
X47410931Y-111408305D01*
X47495858Y-111249417D01*
X47610151Y-111110151D01*
X47749417Y-110995858D01*
X47908305Y-110910931D01*
X48080706Y-110858633D01*
X48215069Y-110845400D01*
X48304931Y-110845400D01*
X48439294Y-110858633D01*
X48439294Y-110858633D01*
G37*
G36*
X45899294Y-108318633D02*
G01*
X46071695Y-108370931D01*
X46230583Y-108455858D01*
X46369849Y-108570151D01*
X46484142Y-108709417D01*
X46569069Y-108868305D01*
X46621367Y-109040706D01*
X46639025Y-109220000D01*
X46621367Y-109399294D01*
X46569069Y-109571695D01*
X46484142Y-109730583D01*
X46369849Y-109869849D01*
X46230583Y-109984142D01*
X46071695Y-110069069D01*
X45899294Y-110121367D01*
X45764931Y-110134600D01*
X45675069Y-110134600D01*
X45540706Y-110121367D01*
X45368305Y-110069069D01*
X45209417Y-109984142D01*
X45070151Y-109869849D01*
X44955858Y-109730583D01*
X44870931Y-109571695D01*
X44818633Y-109399294D01*
X44800975Y-109220000D01*
X44818633Y-109040706D01*
X44870931Y-108868305D01*
X44955858Y-108709417D01*
X45070151Y-108570151D01*
X45209417Y-108455858D01*
X45368305Y-108370931D01*
X45540706Y-108318633D01*
X45675069Y-108305400D01*
X45764931Y-108305400D01*
X45899294Y-108318633D01*
X45899294Y-108318633D01*
G37*
G36*
X48439294Y-108318633D02*
G01*
X48611695Y-108370931D01*
X48770583Y-108455858D01*
X48909849Y-108570151D01*
X49024142Y-108709417D01*
X49109069Y-108868305D01*
X49161367Y-109040706D01*
X49179025Y-109220000D01*
X49161367Y-109399294D01*
X49109069Y-109571695D01*
X49024142Y-109730583D01*
X48909849Y-109869849D01*
X48770583Y-109984142D01*
X48611695Y-110069069D01*
X48439294Y-110121367D01*
X48304931Y-110134600D01*
X48215069Y-110134600D01*
X48080706Y-110121367D01*
X47908305Y-110069069D01*
X47749417Y-109984142D01*
X47610151Y-109869849D01*
X47495858Y-109730583D01*
X47410931Y-109571695D01*
X47358633Y-109399294D01*
X47340975Y-109220000D01*
X47358633Y-109040706D01*
X47410931Y-108868305D01*
X47495858Y-108709417D01*
X47610151Y-108570151D01*
X47749417Y-108455858D01*
X47908305Y-108370931D01*
X48080706Y-108318633D01*
X48215069Y-108305400D01*
X48304931Y-108305400D01*
X48439294Y-108318633D01*
X48439294Y-108318633D01*
G37*
G36*
X48439294Y-105778633D02*
G01*
X48611695Y-105830931D01*
X48770583Y-105915858D01*
X48909849Y-106030151D01*
X49024142Y-106169417D01*
X49109069Y-106328305D01*
X49161367Y-106500706D01*
X49179025Y-106680000D01*
X49161367Y-106859294D01*
X49109069Y-107031695D01*
X49024142Y-107190583D01*
X48909849Y-107329849D01*
X48770583Y-107444142D01*
X48611695Y-107529069D01*
X48439294Y-107581367D01*
X48304931Y-107594600D01*
X48215069Y-107594600D01*
X48080706Y-107581367D01*
X47908305Y-107529069D01*
X47749417Y-107444142D01*
X47610151Y-107329849D01*
X47495858Y-107190583D01*
X47410931Y-107031695D01*
X47358633Y-106859294D01*
X47340975Y-106680000D01*
X47358633Y-106500706D01*
X47410931Y-106328305D01*
X47495858Y-106169417D01*
X47610151Y-106030151D01*
X47749417Y-105915858D01*
X47908305Y-105830931D01*
X48080706Y-105778633D01*
X48215069Y-105765400D01*
X48304931Y-105765400D01*
X48439294Y-105778633D01*
X48439294Y-105778633D01*
G37*
G36*
X45899294Y-105778633D02*
G01*
X46071695Y-105830931D01*
X46230583Y-105915858D01*
X46369849Y-106030151D01*
X46484142Y-106169417D01*
X46569069Y-106328305D01*
X46621367Y-106500706D01*
X46639025Y-106680000D01*
X46621367Y-106859294D01*
X46569069Y-107031695D01*
X46484142Y-107190583D01*
X46369849Y-107329849D01*
X46230583Y-107444142D01*
X46071695Y-107529069D01*
X45899294Y-107581367D01*
X45764931Y-107594600D01*
X45675069Y-107594600D01*
X45540706Y-107581367D01*
X45368305Y-107529069D01*
X45209417Y-107444142D01*
X45070151Y-107329849D01*
X44955858Y-107190583D01*
X44870931Y-107031695D01*
X44818633Y-106859294D01*
X44800975Y-106680000D01*
X44818633Y-106500706D01*
X44870931Y-106328305D01*
X44955858Y-106169417D01*
X45070151Y-106030151D01*
X45209417Y-105915858D01*
X45368305Y-105830931D01*
X45540706Y-105778633D01*
X45675069Y-105765400D01*
X45764931Y-105765400D01*
X45899294Y-105778633D01*
X45899294Y-105778633D01*
G37*
G36*
X45899294Y-103238633D02*
G01*
X46071695Y-103290931D01*
X46230583Y-103375858D01*
X46369849Y-103490151D01*
X46484142Y-103629417D01*
X46569069Y-103788305D01*
X46621367Y-103960706D01*
X46639025Y-104140000D01*
X46621367Y-104319294D01*
X46569069Y-104491695D01*
X46484142Y-104650583D01*
X46369849Y-104789849D01*
X46230583Y-104904142D01*
X46071695Y-104989069D01*
X45899294Y-105041367D01*
X45764931Y-105054600D01*
X45675069Y-105054600D01*
X45540706Y-105041367D01*
X45368305Y-104989069D01*
X45209417Y-104904142D01*
X45070151Y-104789849D01*
X44955858Y-104650583D01*
X44870931Y-104491695D01*
X44818633Y-104319294D01*
X44800975Y-104140000D01*
X44818633Y-103960706D01*
X44870931Y-103788305D01*
X44955858Y-103629417D01*
X45070151Y-103490151D01*
X45209417Y-103375858D01*
X45368305Y-103290931D01*
X45540706Y-103238633D01*
X45675069Y-103225400D01*
X45764931Y-103225400D01*
X45899294Y-103238633D01*
X45899294Y-103238633D01*
G37*
G36*
X48439294Y-103238633D02*
G01*
X48611695Y-103290931D01*
X48770583Y-103375858D01*
X48909849Y-103490151D01*
X49024142Y-103629417D01*
X49109069Y-103788305D01*
X49161367Y-103960706D01*
X49179025Y-104140000D01*
X49161367Y-104319294D01*
X49109069Y-104491695D01*
X49024142Y-104650583D01*
X48909849Y-104789849D01*
X48770583Y-104904142D01*
X48611695Y-104989069D01*
X48439294Y-105041367D01*
X48304931Y-105054600D01*
X48215069Y-105054600D01*
X48080706Y-105041367D01*
X47908305Y-104989069D01*
X47749417Y-104904142D01*
X47610151Y-104789849D01*
X47495858Y-104650583D01*
X47410931Y-104491695D01*
X47358633Y-104319294D01*
X47340975Y-104140000D01*
X47358633Y-103960706D01*
X47410931Y-103788305D01*
X47495858Y-103629417D01*
X47610151Y-103490151D01*
X47749417Y-103375858D01*
X47908305Y-103290931D01*
X48080706Y-103238633D01*
X48215069Y-103225400D01*
X48304931Y-103225400D01*
X48439294Y-103238633D01*
X48439294Y-103238633D01*
G37*
G36*
X45899294Y-100698633D02*
G01*
X46071695Y-100750931D01*
X46230583Y-100835858D01*
X46369849Y-100950151D01*
X46484142Y-101089417D01*
X46569069Y-101248305D01*
X46621367Y-101420706D01*
X46639025Y-101600000D01*
X46621367Y-101779294D01*
X46569069Y-101951695D01*
X46484142Y-102110583D01*
X46369849Y-102249849D01*
X46230583Y-102364142D01*
X46071695Y-102449069D01*
X45899294Y-102501367D01*
X45764931Y-102514600D01*
X45675069Y-102514600D01*
X45540706Y-102501367D01*
X45368305Y-102449069D01*
X45209417Y-102364142D01*
X45070151Y-102249849D01*
X44955858Y-102110583D01*
X44870931Y-101951695D01*
X44818633Y-101779294D01*
X44800975Y-101600000D01*
X44818633Y-101420706D01*
X44870931Y-101248305D01*
X44955858Y-101089417D01*
X45070151Y-100950151D01*
X45209417Y-100835858D01*
X45368305Y-100750931D01*
X45540706Y-100698633D01*
X45675069Y-100685400D01*
X45764931Y-100685400D01*
X45899294Y-100698633D01*
X45899294Y-100698633D01*
G37*
G36*
X48439294Y-100698633D02*
G01*
X48611695Y-100750931D01*
X48770583Y-100835858D01*
X48909849Y-100950151D01*
X49024142Y-101089417D01*
X49109069Y-101248305D01*
X49161367Y-101420706D01*
X49179025Y-101600000D01*
X49161367Y-101779294D01*
X49109069Y-101951695D01*
X49024142Y-102110583D01*
X48909849Y-102249849D01*
X48770583Y-102364142D01*
X48611695Y-102449069D01*
X48439294Y-102501367D01*
X48304931Y-102514600D01*
X48215069Y-102514600D01*
X48080706Y-102501367D01*
X47908305Y-102449069D01*
X47749417Y-102364142D01*
X47610151Y-102249849D01*
X47495858Y-102110583D01*
X47410931Y-101951695D01*
X47358633Y-101779294D01*
X47340975Y-101600000D01*
X47358633Y-101420706D01*
X47410931Y-101248305D01*
X47495858Y-101089417D01*
X47610151Y-100950151D01*
X47749417Y-100835858D01*
X47908305Y-100750931D01*
X48080706Y-100698633D01*
X48215069Y-100685400D01*
X48304931Y-100685400D01*
X48439294Y-100698633D01*
X48439294Y-100698633D01*
G37*
G36*
X45899294Y-98158633D02*
G01*
X46071695Y-98210931D01*
X46230583Y-98295858D01*
X46369849Y-98410151D01*
X46484142Y-98549417D01*
X46569069Y-98708305D01*
X46621367Y-98880706D01*
X46639025Y-99060000D01*
X46621367Y-99239294D01*
X46569069Y-99411695D01*
X46484142Y-99570583D01*
X46369849Y-99709849D01*
X46230583Y-99824142D01*
X46071695Y-99909069D01*
X45899294Y-99961367D01*
X45764931Y-99974600D01*
X45675069Y-99974600D01*
X45540706Y-99961367D01*
X45368305Y-99909069D01*
X45209417Y-99824142D01*
X45070151Y-99709849D01*
X44955858Y-99570583D01*
X44870931Y-99411695D01*
X44818633Y-99239294D01*
X44800975Y-99060000D01*
X44818633Y-98880706D01*
X44870931Y-98708305D01*
X44955858Y-98549417D01*
X45070151Y-98410151D01*
X45209417Y-98295858D01*
X45368305Y-98210931D01*
X45540706Y-98158633D01*
X45675069Y-98145400D01*
X45764931Y-98145400D01*
X45899294Y-98158633D01*
X45899294Y-98158633D01*
G37*
G36*
X48439294Y-98158633D02*
G01*
X48611695Y-98210931D01*
X48770583Y-98295858D01*
X48909849Y-98410151D01*
X49024142Y-98549417D01*
X49109069Y-98708305D01*
X49161367Y-98880706D01*
X49179025Y-99060000D01*
X49161367Y-99239294D01*
X49109069Y-99411695D01*
X49024142Y-99570583D01*
X48909849Y-99709849D01*
X48770583Y-99824142D01*
X48611695Y-99909069D01*
X48439294Y-99961367D01*
X48304931Y-99974600D01*
X48215069Y-99974600D01*
X48080706Y-99961367D01*
X47908305Y-99909069D01*
X47749417Y-99824142D01*
X47610151Y-99709849D01*
X47495858Y-99570583D01*
X47410931Y-99411695D01*
X47358633Y-99239294D01*
X47340975Y-99060000D01*
X47358633Y-98880706D01*
X47410931Y-98708305D01*
X47495858Y-98549417D01*
X47610151Y-98410151D01*
X47749417Y-98295858D01*
X47908305Y-98210931D01*
X48080706Y-98158633D01*
X48215069Y-98145400D01*
X48304931Y-98145400D01*
X48439294Y-98158633D01*
X48439294Y-98158633D01*
G37*
G36*
X44616823Y-84251313D02*
G01*
X44777242Y-84299976D01*
X44909906Y-84370886D01*
X44925078Y-84378996D01*
X45054659Y-84485341D01*
X45161004Y-84614922D01*
X45161005Y-84614924D01*
X45240024Y-84762758D01*
X45288687Y-84923177D01*
X45305117Y-85090000D01*
X45288687Y-85256823D01*
X45240024Y-85417242D01*
X45169114Y-85549906D01*
X45161004Y-85565078D01*
X45054659Y-85694659D01*
X44925078Y-85801004D01*
X44925076Y-85801005D01*
X44777242Y-85880024D01*
X44616823Y-85928687D01*
X44491804Y-85941000D01*
X44408196Y-85941000D01*
X44283177Y-85928687D01*
X44122758Y-85880024D01*
X43974924Y-85801005D01*
X43974922Y-85801004D01*
X43845341Y-85694659D01*
X43738996Y-85565078D01*
X43730886Y-85549906D01*
X43659976Y-85417242D01*
X43611313Y-85256823D01*
X43594883Y-85090000D01*
X43611313Y-84923177D01*
X43659976Y-84762758D01*
X43738995Y-84614924D01*
X43738996Y-84614922D01*
X43845341Y-84485341D01*
X43974922Y-84378996D01*
X43990094Y-84370886D01*
X44122758Y-84299976D01*
X44283177Y-84251313D01*
X44408196Y-84239000D01*
X44491804Y-84239000D01*
X44616823Y-84251313D01*
X44616823Y-84251313D01*
G37*
G36*
X52236823Y-84251313D02*
G01*
X52397242Y-84299976D01*
X52529906Y-84370886D01*
X52545078Y-84378996D01*
X52674659Y-84485341D01*
X52781004Y-84614922D01*
X52781005Y-84614924D01*
X52860024Y-84762758D01*
X52908687Y-84923177D01*
X52925117Y-85090000D01*
X52908687Y-85256823D01*
X52860024Y-85417242D01*
X52789114Y-85549906D01*
X52781004Y-85565078D01*
X52674659Y-85694659D01*
X52545078Y-85801004D01*
X52545076Y-85801005D01*
X52397242Y-85880024D01*
X52236823Y-85928687D01*
X52111804Y-85941000D01*
X52028196Y-85941000D01*
X51903177Y-85928687D01*
X51742758Y-85880024D01*
X51594924Y-85801005D01*
X51594922Y-85801004D01*
X51465341Y-85694659D01*
X51358996Y-85565078D01*
X51350886Y-85549906D01*
X51279976Y-85417242D01*
X51231313Y-85256823D01*
X51214883Y-85090000D01*
X51231313Y-84923177D01*
X51279976Y-84762758D01*
X51358995Y-84614924D01*
X51358996Y-84614922D01*
X51465341Y-84485341D01*
X51594922Y-84378996D01*
X51610094Y-84370886D01*
X51742758Y-84299976D01*
X51903177Y-84251313D01*
X52028196Y-84239000D01*
X52111804Y-84239000D01*
X52236823Y-84251313D01*
X52236823Y-84251313D01*
G37*
G36*
X48426823Y-82981313D02*
G01*
X48587242Y-83029976D01*
X48719906Y-83100886D01*
X48735078Y-83108996D01*
X48864659Y-83215341D01*
X48971004Y-83344922D01*
X48971005Y-83344924D01*
X49050024Y-83492758D01*
X49098687Y-83653177D01*
X49115117Y-83820000D01*
X49098687Y-83986823D01*
X49050024Y-84147242D01*
X49000978Y-84239000D01*
X48971004Y-84295078D01*
X48864659Y-84424659D01*
X48735078Y-84531004D01*
X48735076Y-84531005D01*
X48587242Y-84610024D01*
X48426823Y-84658687D01*
X48301804Y-84671000D01*
X48218196Y-84671000D01*
X48093177Y-84658687D01*
X47932758Y-84610024D01*
X47784924Y-84531005D01*
X47784922Y-84531004D01*
X47655341Y-84424659D01*
X47548996Y-84295078D01*
X47519022Y-84239000D01*
X47469976Y-84147242D01*
X47421313Y-83986823D01*
X47404883Y-83820000D01*
X47421313Y-83653177D01*
X47469976Y-83492758D01*
X47548995Y-83344924D01*
X47548996Y-83344922D01*
X47655341Y-83215341D01*
X47784922Y-83108996D01*
X47800094Y-83100886D01*
X47932758Y-83029976D01*
X48093177Y-82981313D01*
X48218196Y-82969000D01*
X48301804Y-82969000D01*
X48426823Y-82981313D01*
X48426823Y-82981313D01*
G37*
G36*
X49111000Y-77051000D02*
G01*
X47409000Y-77051000D01*
X47409000Y-75349000D01*
X49111000Y-75349000D01*
X49111000Y-77051000D01*
X49111000Y-77051000D01*
G37*
G36*
X52318228Y-74111703D02*
G01*
X52473100Y-74175853D01*
X52612481Y-74268985D01*
X52731015Y-74387519D01*
X52824147Y-74526900D01*
X52888297Y-74681772D01*
X52921000Y-74846184D01*
X52921000Y-75013816D01*
X52888297Y-75178228D01*
X52824147Y-75333100D01*
X52731015Y-75472481D01*
X52612481Y-75591015D01*
X52473100Y-75684147D01*
X52318228Y-75748297D01*
X52153816Y-75781000D01*
X51986184Y-75781000D01*
X51821772Y-75748297D01*
X51666900Y-75684147D01*
X51527519Y-75591015D01*
X51408985Y-75472481D01*
X51315853Y-75333100D01*
X51251703Y-75178228D01*
X51219000Y-75013816D01*
X51219000Y-74846184D01*
X51251703Y-74681772D01*
X51315853Y-74526900D01*
X51408985Y-74387519D01*
X51527519Y-74268985D01*
X51666900Y-74175853D01*
X51821772Y-74111703D01*
X51986184Y-74079000D01*
X52153816Y-74079000D01*
X52318228Y-74111703D01*
X52318228Y-74111703D01*
G37*
G36*
X44698228Y-74111703D02*
G01*
X44853100Y-74175853D01*
X44992481Y-74268985D01*
X45111015Y-74387519D01*
X45204147Y-74526900D01*
X45268297Y-74681772D01*
X45301000Y-74846184D01*
X45301000Y-75013816D01*
X45268297Y-75178228D01*
X45204147Y-75333100D01*
X45111015Y-75472481D01*
X44992481Y-75591015D01*
X44853100Y-75684147D01*
X44698228Y-75748297D01*
X44533816Y-75781000D01*
X44366184Y-75781000D01*
X44201772Y-75748297D01*
X44046900Y-75684147D01*
X43907519Y-75591015D01*
X43788985Y-75472481D01*
X43695853Y-75333100D01*
X43631703Y-75178228D01*
X43599000Y-75013816D01*
X43599000Y-74846184D01*
X43631703Y-74681772D01*
X43695853Y-74526900D01*
X43788985Y-74387519D01*
X43907519Y-74268985D01*
X44046900Y-74175853D01*
X44201772Y-74111703D01*
X44366184Y-74079000D01*
X44533816Y-74079000D01*
X44698228Y-74111703D01*
X44698228Y-74111703D01*
G37*
G36*
X54776823Y-67741313D02*
G01*
X54937242Y-67789976D01*
X55069906Y-67860886D01*
X55085078Y-67868996D01*
X55214659Y-67975341D01*
X55321004Y-68104922D01*
X55321005Y-68104924D01*
X55400024Y-68252758D01*
X55448687Y-68413177D01*
X55465117Y-68580000D01*
X55448687Y-68746823D01*
X55400024Y-68907242D01*
X55329114Y-69039906D01*
X55321004Y-69055078D01*
X55214659Y-69184659D01*
X55085078Y-69291004D01*
X55085076Y-69291005D01*
X54937242Y-69370024D01*
X54776823Y-69418687D01*
X54651804Y-69431000D01*
X54568196Y-69431000D01*
X54443177Y-69418687D01*
X54282758Y-69370024D01*
X54134924Y-69291005D01*
X54134922Y-69291004D01*
X54005341Y-69184659D01*
X53898996Y-69055078D01*
X53890886Y-69039906D01*
X53819976Y-68907242D01*
X53771313Y-68746823D01*
X53754883Y-68580000D01*
X53771313Y-68413177D01*
X53819976Y-68252758D01*
X53898995Y-68104924D01*
X53898996Y-68104922D01*
X54005341Y-67975341D01*
X54134922Y-67868996D01*
X54150094Y-67860886D01*
X54282758Y-67789976D01*
X54443177Y-67741313D01*
X54568196Y-67729000D01*
X54651804Y-67729000D01*
X54776823Y-67741313D01*
X54776823Y-67741313D01*
G37*
G36*
X40221000Y-69431000D02*
G01*
X38519000Y-69431000D01*
X38519000Y-67729000D01*
X40221000Y-67729000D01*
X40221000Y-69431000D01*
X40221000Y-69431000D01*
G37*
G36*
X54776823Y-65201313D02*
G01*
X54937242Y-65249976D01*
X55069906Y-65320886D01*
X55085078Y-65328996D01*
X55214659Y-65435341D01*
X55321004Y-65564922D01*
X55321005Y-65564924D01*
X55400024Y-65712758D01*
X55448687Y-65873177D01*
X55465117Y-66040000D01*
X55448687Y-66206823D01*
X55400024Y-66367242D01*
X55329114Y-66499906D01*
X55321004Y-66515078D01*
X55214659Y-66644659D01*
X55085078Y-66751004D01*
X55085076Y-66751005D01*
X54937242Y-66830024D01*
X54776823Y-66878687D01*
X54651804Y-66891000D01*
X54568196Y-66891000D01*
X54443177Y-66878687D01*
X54282758Y-66830024D01*
X54134924Y-66751005D01*
X54134922Y-66751004D01*
X54005341Y-66644659D01*
X53898996Y-66515078D01*
X53890886Y-66499906D01*
X53819976Y-66367242D01*
X53771313Y-66206823D01*
X53754883Y-66040000D01*
X53771313Y-65873177D01*
X53819976Y-65712758D01*
X53898995Y-65564924D01*
X53898996Y-65564922D01*
X54005341Y-65435341D01*
X54134922Y-65328996D01*
X54150094Y-65320886D01*
X54282758Y-65249976D01*
X54443177Y-65201313D01*
X54568196Y-65189000D01*
X54651804Y-65189000D01*
X54776823Y-65201313D01*
X54776823Y-65201313D01*
G37*
G36*
X39536823Y-65201313D02*
G01*
X39697242Y-65249976D01*
X39829906Y-65320886D01*
X39845078Y-65328996D01*
X39974659Y-65435341D01*
X40081004Y-65564922D01*
X40081005Y-65564924D01*
X40160024Y-65712758D01*
X40208687Y-65873177D01*
X40225117Y-66040000D01*
X40208687Y-66206823D01*
X40160024Y-66367242D01*
X40089114Y-66499906D01*
X40081004Y-66515078D01*
X39974659Y-66644659D01*
X39845078Y-66751004D01*
X39845076Y-66751005D01*
X39697242Y-66830024D01*
X39536823Y-66878687D01*
X39411804Y-66891000D01*
X39328196Y-66891000D01*
X39203177Y-66878687D01*
X39042758Y-66830024D01*
X38894924Y-66751005D01*
X38894922Y-66751004D01*
X38765341Y-66644659D01*
X38658996Y-66515078D01*
X38650886Y-66499906D01*
X38579976Y-66367242D01*
X38531313Y-66206823D01*
X38514883Y-66040000D01*
X38531313Y-65873177D01*
X38579976Y-65712758D01*
X38658995Y-65564924D01*
X38658996Y-65564922D01*
X38765341Y-65435341D01*
X38894922Y-65328996D01*
X38910094Y-65320886D01*
X39042758Y-65249976D01*
X39203177Y-65201313D01*
X39328196Y-65189000D01*
X39411804Y-65189000D01*
X39536823Y-65201313D01*
X39536823Y-65201313D01*
G37*
G36*
X47227395Y-63855546D02*
G01*
X47400466Y-63927234D01*
X47472069Y-63975078D01*
X47556227Y-64031310D01*
X47688690Y-64163773D01*
X47720249Y-64211005D01*
X47792766Y-64319534D01*
X47864454Y-64492605D01*
X47901000Y-64676333D01*
X47901000Y-64863667D01*
X47864454Y-65047395D01*
X47792766Y-65220466D01*
X47773048Y-65249976D01*
X47688690Y-65376227D01*
X47556227Y-65508690D01*
X47477818Y-65561081D01*
X47400466Y-65612766D01*
X47227395Y-65684454D01*
X47043667Y-65721000D01*
X46856333Y-65721000D01*
X46672605Y-65684454D01*
X46499534Y-65612766D01*
X46422182Y-65561081D01*
X46343773Y-65508690D01*
X46211310Y-65376227D01*
X46126952Y-65249976D01*
X46107234Y-65220466D01*
X46035546Y-65047395D01*
X45999000Y-64863667D01*
X45999000Y-64676333D01*
X46035546Y-64492605D01*
X46107234Y-64319534D01*
X46179751Y-64211005D01*
X46211310Y-64163773D01*
X46343773Y-64031310D01*
X46427931Y-63975078D01*
X46499534Y-63927234D01*
X46672605Y-63855546D01*
X46856333Y-63819000D01*
X47043667Y-63819000D01*
X47227395Y-63855546D01*
X47227395Y-63855546D01*
G37*
G36*
X49727395Y-63855546D02*
G01*
X49900466Y-63927234D01*
X49972069Y-63975078D01*
X50056227Y-64031310D01*
X50188690Y-64163773D01*
X50220249Y-64211005D01*
X50292766Y-64319534D01*
X50364454Y-64492605D01*
X50401000Y-64676333D01*
X50401000Y-64863667D01*
X50364454Y-65047395D01*
X50292766Y-65220466D01*
X50273048Y-65249976D01*
X50188690Y-65376227D01*
X50056227Y-65508690D01*
X49977818Y-65561081D01*
X49900466Y-65612766D01*
X49727395Y-65684454D01*
X49543667Y-65721000D01*
X49356333Y-65721000D01*
X49172605Y-65684454D01*
X48999534Y-65612766D01*
X48922182Y-65561081D01*
X48843773Y-65508690D01*
X48711310Y-65376227D01*
X48626952Y-65249976D01*
X48607234Y-65220466D01*
X48535546Y-65047395D01*
X48499000Y-64863667D01*
X48499000Y-64676333D01*
X48535546Y-64492605D01*
X48607234Y-64319534D01*
X48679751Y-64211005D01*
X48711310Y-64163773D01*
X48843773Y-64031310D01*
X48927931Y-63975078D01*
X48999534Y-63927234D01*
X49172605Y-63855546D01*
X49356333Y-63819000D01*
X49543667Y-63819000D01*
X49727395Y-63855546D01*
X49727395Y-63855546D01*
G37*
G36*
X45401000Y-65721000D02*
G01*
X43499000Y-65721000D01*
X43499000Y-63819000D01*
X45401000Y-63819000D01*
X45401000Y-65721000D01*
X45401000Y-65721000D01*
G37*
G36*
X39536823Y-62661313D02*
G01*
X39697242Y-62709976D01*
X39829906Y-62780886D01*
X39845078Y-62788996D01*
X39974659Y-62895341D01*
X40081004Y-63024922D01*
X40081005Y-63024924D01*
X40160024Y-63172758D01*
X40208687Y-63333177D01*
X40225117Y-63500000D01*
X40208687Y-63666823D01*
X40160024Y-63827242D01*
X40089114Y-63959906D01*
X40081004Y-63975078D01*
X39974659Y-64104659D01*
X39845078Y-64211004D01*
X39845076Y-64211005D01*
X39697242Y-64290024D01*
X39536823Y-64338687D01*
X39411804Y-64351000D01*
X39328196Y-64351000D01*
X39203177Y-64338687D01*
X39042758Y-64290024D01*
X38894924Y-64211005D01*
X38894922Y-64211004D01*
X38765341Y-64104659D01*
X38658996Y-63975078D01*
X38650886Y-63959906D01*
X38579976Y-63827242D01*
X38531313Y-63666823D01*
X38514883Y-63500000D01*
X38531313Y-63333177D01*
X38579976Y-63172758D01*
X38658995Y-63024924D01*
X38658996Y-63024922D01*
X38765341Y-62895341D01*
X38894922Y-62788996D01*
X38910094Y-62780886D01*
X39042758Y-62709976D01*
X39203177Y-62661313D01*
X39328196Y-62649000D01*
X39411804Y-62649000D01*
X39536823Y-62661313D01*
X39536823Y-62661313D01*
G37*
G36*
X54776823Y-62661313D02*
G01*
X54937242Y-62709976D01*
X55069906Y-62780886D01*
X55085078Y-62788996D01*
X55214659Y-62895341D01*
X55321004Y-63024922D01*
X55321005Y-63024924D01*
X55400024Y-63172758D01*
X55448687Y-63333177D01*
X55465117Y-63500000D01*
X55448687Y-63666823D01*
X55400024Y-63827242D01*
X55329114Y-63959906D01*
X55321004Y-63975078D01*
X55214659Y-64104659D01*
X55085078Y-64211004D01*
X55085076Y-64211005D01*
X54937242Y-64290024D01*
X54776823Y-64338687D01*
X54651804Y-64351000D01*
X54568196Y-64351000D01*
X54443177Y-64338687D01*
X54282758Y-64290024D01*
X54134924Y-64211005D01*
X54134922Y-64211004D01*
X54005341Y-64104659D01*
X53898996Y-63975078D01*
X53890886Y-63959906D01*
X53819976Y-63827242D01*
X53771313Y-63666823D01*
X53754883Y-63500000D01*
X53771313Y-63333177D01*
X53819976Y-63172758D01*
X53898995Y-63024924D01*
X53898996Y-63024922D01*
X54005341Y-62895341D01*
X54134922Y-62788996D01*
X54150094Y-62780886D01*
X54282758Y-62709976D01*
X54443177Y-62661313D01*
X54568196Y-62649000D01*
X54651804Y-62649000D01*
X54776823Y-62661313D01*
X54776823Y-62661313D01*
G37*
G36*
X39536823Y-60121313D02*
G01*
X39697242Y-60169976D01*
X39829906Y-60240886D01*
X39845078Y-60248996D01*
X39974659Y-60355341D01*
X40081004Y-60484922D01*
X40081005Y-60484924D01*
X40160024Y-60632758D01*
X40208687Y-60793177D01*
X40225117Y-60960000D01*
X40208687Y-61126823D01*
X40160024Y-61287242D01*
X40089114Y-61419906D01*
X40081004Y-61435078D01*
X39974659Y-61564659D01*
X39845078Y-61671004D01*
X39845076Y-61671005D01*
X39697242Y-61750024D01*
X39536823Y-61798687D01*
X39411804Y-61811000D01*
X39328196Y-61811000D01*
X39203177Y-61798687D01*
X39042758Y-61750024D01*
X38894924Y-61671005D01*
X38894922Y-61671004D01*
X38765341Y-61564659D01*
X38658996Y-61435078D01*
X38650886Y-61419906D01*
X38579976Y-61287242D01*
X38531313Y-61126823D01*
X38514883Y-60960000D01*
X38531313Y-60793177D01*
X38579976Y-60632758D01*
X38658995Y-60484924D01*
X38658996Y-60484922D01*
X38765341Y-60355341D01*
X38894922Y-60248996D01*
X38910094Y-60240886D01*
X39042758Y-60169976D01*
X39203177Y-60121313D01*
X39328196Y-60109000D01*
X39411804Y-60109000D01*
X39536823Y-60121313D01*
X39536823Y-60121313D01*
G37*
G36*
X54776823Y-60121313D02*
G01*
X54937242Y-60169976D01*
X55069906Y-60240886D01*
X55085078Y-60248996D01*
X55214659Y-60355341D01*
X55321004Y-60484922D01*
X55321005Y-60484924D01*
X55400024Y-60632758D01*
X55448687Y-60793177D01*
X55465117Y-60960000D01*
X55448687Y-61126823D01*
X55400024Y-61287242D01*
X55329114Y-61419906D01*
X55321004Y-61435078D01*
X55214659Y-61564659D01*
X55085078Y-61671004D01*
X55085076Y-61671005D01*
X54937242Y-61750024D01*
X54776823Y-61798687D01*
X54651804Y-61811000D01*
X54568196Y-61811000D01*
X54443177Y-61798687D01*
X54282758Y-61750024D01*
X54134924Y-61671005D01*
X54134922Y-61671004D01*
X54005341Y-61564659D01*
X53898996Y-61435078D01*
X53890886Y-61419906D01*
X53819976Y-61287242D01*
X53771313Y-61126823D01*
X53754883Y-60960000D01*
X53771313Y-60793177D01*
X53819976Y-60632758D01*
X53898995Y-60484924D01*
X53898996Y-60484922D01*
X54005341Y-60355341D01*
X54134922Y-60248996D01*
X54150094Y-60240886D01*
X54282758Y-60169976D01*
X54443177Y-60121313D01*
X54568196Y-60109000D01*
X54651804Y-60109000D01*
X54776823Y-60121313D01*
X54776823Y-60121313D01*
G37*
G36*
X39536823Y-57581313D02*
G01*
X39697242Y-57629976D01*
X39829906Y-57700886D01*
X39845078Y-57708996D01*
X39974659Y-57815341D01*
X40081004Y-57944922D01*
X40081005Y-57944924D01*
X40160024Y-58092758D01*
X40208687Y-58253177D01*
X40225117Y-58420000D01*
X40208687Y-58586823D01*
X40160024Y-58747242D01*
X40158110Y-58750822D01*
X40081004Y-58895078D01*
X39974659Y-59024659D01*
X39845078Y-59131004D01*
X39845076Y-59131005D01*
X39697242Y-59210024D01*
X39536823Y-59258687D01*
X39411804Y-59271000D01*
X39328196Y-59271000D01*
X39203177Y-59258687D01*
X39042758Y-59210024D01*
X38894924Y-59131005D01*
X38894922Y-59131004D01*
X38765341Y-59024659D01*
X38658996Y-58895078D01*
X38581890Y-58750822D01*
X38579976Y-58747242D01*
X38531313Y-58586823D01*
X38514883Y-58420000D01*
X38531313Y-58253177D01*
X38579976Y-58092758D01*
X38658995Y-57944924D01*
X38658996Y-57944922D01*
X38765341Y-57815341D01*
X38894922Y-57708996D01*
X38910094Y-57700886D01*
X39042758Y-57629976D01*
X39203177Y-57581313D01*
X39328196Y-57569000D01*
X39411804Y-57569000D01*
X39536823Y-57581313D01*
X39536823Y-57581313D01*
G37*
G36*
X54776823Y-57581313D02*
G01*
X54937242Y-57629976D01*
X55069906Y-57700886D01*
X55085078Y-57708996D01*
X55214659Y-57815341D01*
X55321004Y-57944922D01*
X55321005Y-57944924D01*
X55400024Y-58092758D01*
X55448687Y-58253177D01*
X55465117Y-58420000D01*
X55448687Y-58586823D01*
X55400024Y-58747242D01*
X55398110Y-58750822D01*
X55321004Y-58895078D01*
X55214659Y-59024659D01*
X55085078Y-59131004D01*
X55085076Y-59131005D01*
X54937242Y-59210024D01*
X54776823Y-59258687D01*
X54651804Y-59271000D01*
X54568196Y-59271000D01*
X54443177Y-59258687D01*
X54282758Y-59210024D01*
X54134924Y-59131005D01*
X54134922Y-59131004D01*
X54005341Y-59024659D01*
X53898996Y-58895078D01*
X53821890Y-58750822D01*
X53819976Y-58747242D01*
X53771313Y-58586823D01*
X53754883Y-58420000D01*
X53771313Y-58253177D01*
X53819976Y-58092758D01*
X53898995Y-57944924D01*
X53898996Y-57944922D01*
X54005341Y-57815341D01*
X54134922Y-57708996D01*
X54150094Y-57700886D01*
X54282758Y-57629976D01*
X54443177Y-57581313D01*
X54568196Y-57569000D01*
X54651804Y-57569000D01*
X54776823Y-57581313D01*
X54776823Y-57581313D01*
G37*
G36*
X52237412Y-55663215D02*
G01*
X52541514Y-55789178D01*
X52815199Y-55972049D01*
X53047951Y-56204801D01*
X53230822Y-56478486D01*
X53356785Y-56782588D01*
X53421000Y-57105420D01*
X53421000Y-57434580D01*
X53356785Y-57757412D01*
X53230822Y-58061514D01*
X53047951Y-58335199D01*
X52815199Y-58567951D01*
X52541514Y-58750822D01*
X52237412Y-58876785D01*
X51914580Y-58941000D01*
X51585420Y-58941000D01*
X51262588Y-58876785D01*
X50958486Y-58750822D01*
X50684801Y-58567951D01*
X50452049Y-58335199D01*
X50269178Y-58061514D01*
X50143215Y-57757412D01*
X50079000Y-57434580D01*
X50079000Y-57105420D01*
X50143215Y-56782588D01*
X50269178Y-56478486D01*
X50452049Y-56204801D01*
X50684801Y-55972049D01*
X50958486Y-55789178D01*
X51262588Y-55663215D01*
X51585420Y-55599000D01*
X51914580Y-55599000D01*
X52237412Y-55663215D01*
X52237412Y-55663215D01*
G37*
G36*
X42637412Y-55663215D02*
G01*
X42941514Y-55789178D01*
X43215199Y-55972049D01*
X43447951Y-56204801D01*
X43630822Y-56478486D01*
X43756785Y-56782588D01*
X43821000Y-57105420D01*
X43821000Y-57434580D01*
X43756785Y-57757412D01*
X43630822Y-58061514D01*
X43447951Y-58335199D01*
X43215199Y-58567951D01*
X42941514Y-58750822D01*
X42637412Y-58876785D01*
X42314580Y-58941000D01*
X41985420Y-58941000D01*
X41662588Y-58876785D01*
X41358486Y-58750822D01*
X41084801Y-58567951D01*
X40852049Y-58335199D01*
X40669178Y-58061514D01*
X40543215Y-57757412D01*
X40479000Y-57434580D01*
X40479000Y-57105420D01*
X40543215Y-56782588D01*
X40669178Y-56478486D01*
X40852049Y-56204801D01*
X41084801Y-55972049D01*
X41358486Y-55789178D01*
X41662588Y-55663215D01*
X41985420Y-55599000D01*
X42314580Y-55599000D01*
X42637412Y-55663215D01*
X42637412Y-55663215D01*
G37*
G36*
X39536823Y-55041313D02*
G01*
X39697242Y-55089976D01*
X39829906Y-55160886D01*
X39845078Y-55168996D01*
X39974659Y-55275341D01*
X40081004Y-55404922D01*
X40081005Y-55404924D01*
X40160024Y-55552758D01*
X40208687Y-55713177D01*
X40225117Y-55880000D01*
X40208687Y-56046823D01*
X40208686Y-56046825D01*
X40160765Y-56204801D01*
X40160024Y-56207242D01*
X40089114Y-56339906D01*
X40081004Y-56355078D01*
X39974659Y-56484659D01*
X39845078Y-56591004D01*
X39845076Y-56591005D01*
X39697242Y-56670024D01*
X39536823Y-56718687D01*
X39411804Y-56731000D01*
X39328196Y-56731000D01*
X39203177Y-56718687D01*
X39042758Y-56670024D01*
X38894924Y-56591005D01*
X38894922Y-56591004D01*
X38765341Y-56484659D01*
X38658996Y-56355078D01*
X38650886Y-56339906D01*
X38579976Y-56207242D01*
X38579236Y-56204801D01*
X38531314Y-56046825D01*
X38531313Y-56046823D01*
X38514883Y-55880000D01*
X38531313Y-55713177D01*
X38579976Y-55552758D01*
X38658995Y-55404924D01*
X38658996Y-55404922D01*
X38765341Y-55275341D01*
X38894922Y-55168996D01*
X38910094Y-55160886D01*
X39042758Y-55089976D01*
X39203177Y-55041313D01*
X39328196Y-55029000D01*
X39411804Y-55029000D01*
X39536823Y-55041313D01*
X39536823Y-55041313D01*
G37*
G36*
X54776823Y-55041313D02*
G01*
X54937242Y-55089976D01*
X55069906Y-55160886D01*
X55085078Y-55168996D01*
X55214659Y-55275341D01*
X55321004Y-55404922D01*
X55321005Y-55404924D01*
X55400024Y-55552758D01*
X55448687Y-55713177D01*
X55465117Y-55880000D01*
X55448687Y-56046823D01*
X55448686Y-56046825D01*
X55400765Y-56204801D01*
X55400024Y-56207242D01*
X55329114Y-56339906D01*
X55321004Y-56355078D01*
X55214659Y-56484659D01*
X55085078Y-56591004D01*
X55085076Y-56591005D01*
X54937242Y-56670024D01*
X54776823Y-56718687D01*
X54651804Y-56731000D01*
X54568196Y-56731000D01*
X54443177Y-56718687D01*
X54282758Y-56670024D01*
X54134924Y-56591005D01*
X54134922Y-56591004D01*
X54005341Y-56484659D01*
X53898996Y-56355078D01*
X53890886Y-56339906D01*
X53819976Y-56207242D01*
X53819236Y-56204801D01*
X53771314Y-56046825D01*
X53771313Y-56046823D01*
X53754883Y-55880000D01*
X53771313Y-55713177D01*
X53819976Y-55552758D01*
X53898995Y-55404924D01*
X53898996Y-55404922D01*
X54005341Y-55275341D01*
X54134922Y-55168996D01*
X54150094Y-55160886D01*
X54282758Y-55089976D01*
X54443177Y-55041313D01*
X54568196Y-55029000D01*
X54651804Y-55029000D01*
X54776823Y-55041313D01*
X54776823Y-55041313D01*
G37*
G36*
X39536823Y-52501313D02*
G01*
X39697242Y-52549976D01*
X39829906Y-52620886D01*
X39845078Y-52628996D01*
X39974659Y-52735341D01*
X40081004Y-52864922D01*
X40081005Y-52864924D01*
X40160024Y-53012758D01*
X40208687Y-53173177D01*
X40225117Y-53340000D01*
X40208687Y-53506823D01*
X40160024Y-53667242D01*
X40089114Y-53799906D01*
X40081004Y-53815078D01*
X39974659Y-53944659D01*
X39845078Y-54051004D01*
X39845076Y-54051005D01*
X39697242Y-54130024D01*
X39536823Y-54178687D01*
X39411804Y-54191000D01*
X39328196Y-54191000D01*
X39203177Y-54178687D01*
X39042758Y-54130024D01*
X38894924Y-54051005D01*
X38894922Y-54051004D01*
X38765341Y-53944659D01*
X38658996Y-53815078D01*
X38650886Y-53799906D01*
X38579976Y-53667242D01*
X38531313Y-53506823D01*
X38514883Y-53340000D01*
X38531313Y-53173177D01*
X38579976Y-53012758D01*
X38658995Y-52864924D01*
X38658996Y-52864922D01*
X38765341Y-52735341D01*
X38894922Y-52628996D01*
X38910094Y-52620886D01*
X39042758Y-52549976D01*
X39203177Y-52501313D01*
X39328196Y-52489000D01*
X39411804Y-52489000D01*
X39536823Y-52501313D01*
X39536823Y-52501313D01*
G37*
G36*
X54776823Y-52501313D02*
G01*
X54937242Y-52549976D01*
X55069906Y-52620886D01*
X55085078Y-52628996D01*
X55214659Y-52735341D01*
X55321004Y-52864922D01*
X55321005Y-52864924D01*
X55400024Y-53012758D01*
X55448687Y-53173177D01*
X55465117Y-53340000D01*
X55448687Y-53506823D01*
X55400024Y-53667242D01*
X55329114Y-53799906D01*
X55321004Y-53815078D01*
X55214659Y-53944659D01*
X55085078Y-54051004D01*
X55085076Y-54051005D01*
X54937242Y-54130024D01*
X54776823Y-54178687D01*
X54651804Y-54191000D01*
X54568196Y-54191000D01*
X54443177Y-54178687D01*
X54282758Y-54130024D01*
X54134924Y-54051005D01*
X54134922Y-54051004D01*
X54005341Y-53944659D01*
X53898996Y-53815078D01*
X53890886Y-53799906D01*
X53819976Y-53667242D01*
X53771313Y-53506823D01*
X53754883Y-53340000D01*
X53771313Y-53173177D01*
X53819976Y-53012758D01*
X53898995Y-52864924D01*
X53898996Y-52864922D01*
X54005341Y-52735341D01*
X54134922Y-52628996D01*
X54150094Y-52620886D01*
X54282758Y-52549976D01*
X54443177Y-52501313D01*
X54568196Y-52489000D01*
X54651804Y-52489000D01*
X54776823Y-52501313D01*
X54776823Y-52501313D01*
G37*
G36*
X39536823Y-49961313D02*
G01*
X39697242Y-50009976D01*
X39829906Y-50080886D01*
X39845078Y-50088996D01*
X39974659Y-50195341D01*
X40081004Y-50324922D01*
X40081005Y-50324924D01*
X40160024Y-50472758D01*
X40208687Y-50633177D01*
X40225117Y-50800000D01*
X40208687Y-50966823D01*
X40160024Y-51127242D01*
X40089114Y-51259906D01*
X40081004Y-51275078D01*
X39974659Y-51404659D01*
X39845078Y-51511004D01*
X39845076Y-51511005D01*
X39697242Y-51590024D01*
X39536823Y-51638687D01*
X39411804Y-51651000D01*
X39328196Y-51651000D01*
X39203177Y-51638687D01*
X39042758Y-51590024D01*
X38894924Y-51511005D01*
X38894922Y-51511004D01*
X38765341Y-51404659D01*
X38658996Y-51275078D01*
X38650886Y-51259906D01*
X38579976Y-51127242D01*
X38531313Y-50966823D01*
X38514883Y-50800000D01*
X38531313Y-50633177D01*
X38579976Y-50472758D01*
X38658995Y-50324924D01*
X38658996Y-50324922D01*
X38765341Y-50195341D01*
X38894922Y-50088996D01*
X38910094Y-50080886D01*
X39042758Y-50009976D01*
X39203177Y-49961313D01*
X39328196Y-49949000D01*
X39411804Y-49949000D01*
X39536823Y-49961313D01*
X39536823Y-49961313D01*
G37*
G36*
X54776823Y-49961313D02*
G01*
X54937242Y-50009976D01*
X55069906Y-50080886D01*
X55085078Y-50088996D01*
X55214659Y-50195341D01*
X55321004Y-50324922D01*
X55321005Y-50324924D01*
X55400024Y-50472758D01*
X55448687Y-50633177D01*
X55465117Y-50800000D01*
X55448687Y-50966823D01*
X55400024Y-51127242D01*
X55329114Y-51259906D01*
X55321004Y-51275078D01*
X55214659Y-51404659D01*
X55085078Y-51511004D01*
X55085076Y-51511005D01*
X54937242Y-51590024D01*
X54776823Y-51638687D01*
X54651804Y-51651000D01*
X54568196Y-51651000D01*
X54443177Y-51638687D01*
X54282758Y-51590024D01*
X54134924Y-51511005D01*
X54134922Y-51511004D01*
X54005341Y-51404659D01*
X53898996Y-51275078D01*
X53890886Y-51259906D01*
X53819976Y-51127242D01*
X53771313Y-50966823D01*
X53754883Y-50800000D01*
X53771313Y-50633177D01*
X53819976Y-50472758D01*
X53898995Y-50324924D01*
X53898996Y-50324922D01*
X54005341Y-50195341D01*
X54134922Y-50088996D01*
X54150094Y-50080886D01*
X54282758Y-50009976D01*
X54443177Y-49961313D01*
X54568196Y-49949000D01*
X54651804Y-49949000D01*
X54776823Y-49961313D01*
X54776823Y-49961313D01*
G37*
G36*
X49727395Y-48615546D02*
G01*
X49900466Y-48687234D01*
X49972069Y-48735078D01*
X50056227Y-48791310D01*
X50188690Y-48923773D01*
X50220249Y-48971005D01*
X50292766Y-49079534D01*
X50364454Y-49252605D01*
X50401000Y-49436333D01*
X50401000Y-49623667D01*
X50364454Y-49807395D01*
X50292766Y-49980466D01*
X50273048Y-50009976D01*
X50188690Y-50136227D01*
X50056227Y-50268690D01*
X49977818Y-50321081D01*
X49900466Y-50372766D01*
X49727395Y-50444454D01*
X49543667Y-50481000D01*
X49356333Y-50481000D01*
X49172605Y-50444454D01*
X48999534Y-50372766D01*
X48922182Y-50321081D01*
X48843773Y-50268690D01*
X48711310Y-50136227D01*
X48626952Y-50009976D01*
X48607234Y-49980466D01*
X48535546Y-49807395D01*
X48499000Y-49623667D01*
X48499000Y-49436333D01*
X48535546Y-49252605D01*
X48607234Y-49079534D01*
X48679751Y-48971005D01*
X48711310Y-48923773D01*
X48843773Y-48791310D01*
X48927931Y-48735078D01*
X48999534Y-48687234D01*
X49172605Y-48615546D01*
X49356333Y-48579000D01*
X49543667Y-48579000D01*
X49727395Y-48615546D01*
X49727395Y-48615546D01*
G37*
G36*
X47227395Y-48615546D02*
G01*
X47400466Y-48687234D01*
X47472069Y-48735078D01*
X47556227Y-48791310D01*
X47688690Y-48923773D01*
X47720249Y-48971005D01*
X47792766Y-49079534D01*
X47864454Y-49252605D01*
X47901000Y-49436333D01*
X47901000Y-49623667D01*
X47864454Y-49807395D01*
X47792766Y-49980466D01*
X47773048Y-50009976D01*
X47688690Y-50136227D01*
X47556227Y-50268690D01*
X47477818Y-50321081D01*
X47400466Y-50372766D01*
X47227395Y-50444454D01*
X47043667Y-50481000D01*
X46856333Y-50481000D01*
X46672605Y-50444454D01*
X46499534Y-50372766D01*
X46422182Y-50321081D01*
X46343773Y-50268690D01*
X46211310Y-50136227D01*
X46126952Y-50009976D01*
X46107234Y-49980466D01*
X46035546Y-49807395D01*
X45999000Y-49623667D01*
X45999000Y-49436333D01*
X46035546Y-49252605D01*
X46107234Y-49079534D01*
X46179751Y-48971005D01*
X46211310Y-48923773D01*
X46343773Y-48791310D01*
X46427931Y-48735078D01*
X46499534Y-48687234D01*
X46672605Y-48615546D01*
X46856333Y-48579000D01*
X47043667Y-48579000D01*
X47227395Y-48615546D01*
X47227395Y-48615546D01*
G37*
G36*
X45401000Y-50481000D02*
G01*
X43499000Y-50481000D01*
X43499000Y-48579000D01*
X45401000Y-48579000D01*
X45401000Y-50481000D01*
X45401000Y-50481000D01*
G37*
G36*
X54776823Y-47421313D02*
G01*
X54937242Y-47469976D01*
X55069906Y-47540886D01*
X55085078Y-47548996D01*
X55214659Y-47655341D01*
X55321004Y-47784922D01*
X55321005Y-47784924D01*
X55400024Y-47932758D01*
X55448687Y-48093177D01*
X55465117Y-48260000D01*
X55448687Y-48426823D01*
X55400024Y-48587242D01*
X55329114Y-48719906D01*
X55321004Y-48735078D01*
X55214659Y-48864659D01*
X55085078Y-48971004D01*
X55085076Y-48971005D01*
X54937242Y-49050024D01*
X54776823Y-49098687D01*
X54651804Y-49111000D01*
X54568196Y-49111000D01*
X54443177Y-49098687D01*
X54282758Y-49050024D01*
X54134924Y-48971005D01*
X54134922Y-48971004D01*
X54005341Y-48864659D01*
X53898996Y-48735078D01*
X53890886Y-48719906D01*
X53819976Y-48587242D01*
X53771313Y-48426823D01*
X53754883Y-48260000D01*
X53771313Y-48093177D01*
X53819976Y-47932758D01*
X53898995Y-47784924D01*
X53898996Y-47784922D01*
X54005341Y-47655341D01*
X54134922Y-47548996D01*
X54150094Y-47540886D01*
X54282758Y-47469976D01*
X54443177Y-47421313D01*
X54568196Y-47409000D01*
X54651804Y-47409000D01*
X54776823Y-47421313D01*
X54776823Y-47421313D01*
G37*
G36*
X39536823Y-47421313D02*
G01*
X39697242Y-47469976D01*
X39829906Y-47540886D01*
X39845078Y-47548996D01*
X39974659Y-47655341D01*
X40081004Y-47784922D01*
X40081005Y-47784924D01*
X40160024Y-47932758D01*
X40208687Y-48093177D01*
X40225117Y-48260000D01*
X40208687Y-48426823D01*
X40160024Y-48587242D01*
X40089114Y-48719906D01*
X40081004Y-48735078D01*
X39974659Y-48864659D01*
X39845078Y-48971004D01*
X39845076Y-48971005D01*
X39697242Y-49050024D01*
X39536823Y-49098687D01*
X39411804Y-49111000D01*
X39328196Y-49111000D01*
X39203177Y-49098687D01*
X39042758Y-49050024D01*
X38894924Y-48971005D01*
X38894922Y-48971004D01*
X38765341Y-48864659D01*
X38658996Y-48735078D01*
X38650886Y-48719906D01*
X38579976Y-48587242D01*
X38531313Y-48426823D01*
X38514883Y-48260000D01*
X38531313Y-48093177D01*
X38579976Y-47932758D01*
X38658995Y-47784924D01*
X38658996Y-47784922D01*
X38765341Y-47655341D01*
X38894922Y-47548996D01*
X38910094Y-47540886D01*
X39042758Y-47469976D01*
X39203177Y-47421313D01*
X39328196Y-47409000D01*
X39411804Y-47409000D01*
X39536823Y-47421313D01*
X39536823Y-47421313D01*
G37*
G36*
X54776823Y-44881313D02*
G01*
X54937242Y-44929976D01*
X55069906Y-45000886D01*
X55085078Y-45008996D01*
X55214659Y-45115341D01*
X55321004Y-45244922D01*
X55321005Y-45244924D01*
X55400024Y-45392758D01*
X55448687Y-45553177D01*
X55465117Y-45720000D01*
X55448687Y-45886823D01*
X55400024Y-46047242D01*
X55329114Y-46179906D01*
X55321004Y-46195078D01*
X55214659Y-46324659D01*
X55085078Y-46431004D01*
X55085076Y-46431005D01*
X54937242Y-46510024D01*
X54776823Y-46558687D01*
X54651804Y-46571000D01*
X54568196Y-46571000D01*
X54443177Y-46558687D01*
X54282758Y-46510024D01*
X54134924Y-46431005D01*
X54134922Y-46431004D01*
X54005341Y-46324659D01*
X53898996Y-46195078D01*
X53890886Y-46179906D01*
X53819976Y-46047242D01*
X53771313Y-45886823D01*
X53754883Y-45720000D01*
X53771313Y-45553177D01*
X53819976Y-45392758D01*
X53898995Y-45244924D01*
X53898996Y-45244922D01*
X54005341Y-45115341D01*
X54134922Y-45008996D01*
X54150094Y-45000886D01*
X54282758Y-44929976D01*
X54443177Y-44881313D01*
X54568196Y-44869000D01*
X54651804Y-44869000D01*
X54776823Y-44881313D01*
X54776823Y-44881313D01*
G37*
G36*
X39536823Y-44881313D02*
G01*
X39697242Y-44929976D01*
X39829906Y-45000886D01*
X39845078Y-45008996D01*
X39974659Y-45115341D01*
X40081004Y-45244922D01*
X40081005Y-45244924D01*
X40160024Y-45392758D01*
X40208687Y-45553177D01*
X40225117Y-45720000D01*
X40208687Y-45886823D01*
X40160024Y-46047242D01*
X40089114Y-46179906D01*
X40081004Y-46195078D01*
X39974659Y-46324659D01*
X39845078Y-46431004D01*
X39845076Y-46431005D01*
X39697242Y-46510024D01*
X39536823Y-46558687D01*
X39411804Y-46571000D01*
X39328196Y-46571000D01*
X39203177Y-46558687D01*
X39042758Y-46510024D01*
X38894924Y-46431005D01*
X38894922Y-46431004D01*
X38765341Y-46324659D01*
X38658996Y-46195078D01*
X38650886Y-46179906D01*
X38579976Y-46047242D01*
X38531313Y-45886823D01*
X38514883Y-45720000D01*
X38531313Y-45553177D01*
X38579976Y-45392758D01*
X38658995Y-45244924D01*
X38658996Y-45244922D01*
X38765341Y-45115341D01*
X38894922Y-45008996D01*
X38910094Y-45000886D01*
X39042758Y-44929976D01*
X39203177Y-44881313D01*
X39328196Y-44869000D01*
X39411804Y-44869000D01*
X39536823Y-44881313D01*
X39536823Y-44881313D01*
G37*
G36*
X54776823Y-42341313D02*
G01*
X54937242Y-42389976D01*
X55069906Y-42460886D01*
X55085078Y-42468996D01*
X55214659Y-42575341D01*
X55321004Y-42704922D01*
X55321005Y-42704924D01*
X55400024Y-42852758D01*
X55448687Y-43013177D01*
X55465117Y-43180000D01*
X55448687Y-43346823D01*
X55400024Y-43507242D01*
X55398110Y-43510822D01*
X55321004Y-43655078D01*
X55214659Y-43784659D01*
X55085078Y-43891004D01*
X55085076Y-43891005D01*
X54937242Y-43970024D01*
X54776823Y-44018687D01*
X54651804Y-44031000D01*
X54568196Y-44031000D01*
X54443177Y-44018687D01*
X54282758Y-43970024D01*
X54134924Y-43891005D01*
X54134922Y-43891004D01*
X54005341Y-43784659D01*
X53898996Y-43655078D01*
X53821890Y-43510822D01*
X53819976Y-43507242D01*
X53771313Y-43346823D01*
X53754883Y-43180000D01*
X53771313Y-43013177D01*
X53819976Y-42852758D01*
X53898995Y-42704924D01*
X53898996Y-42704922D01*
X54005341Y-42575341D01*
X54134922Y-42468996D01*
X54150094Y-42460886D01*
X54282758Y-42389976D01*
X54443177Y-42341313D01*
X54568196Y-42329000D01*
X54651804Y-42329000D01*
X54776823Y-42341313D01*
X54776823Y-42341313D01*
G37*
G36*
X39536823Y-42341313D02*
G01*
X39697242Y-42389976D01*
X39829906Y-42460886D01*
X39845078Y-42468996D01*
X39974659Y-42575341D01*
X40081004Y-42704922D01*
X40081005Y-42704924D01*
X40160024Y-42852758D01*
X40208687Y-43013177D01*
X40225117Y-43180000D01*
X40208687Y-43346823D01*
X40160024Y-43507242D01*
X40158110Y-43510822D01*
X40081004Y-43655078D01*
X39974659Y-43784659D01*
X39845078Y-43891004D01*
X39845076Y-43891005D01*
X39697242Y-43970024D01*
X39536823Y-44018687D01*
X39411804Y-44031000D01*
X39328196Y-44031000D01*
X39203177Y-44018687D01*
X39042758Y-43970024D01*
X38894924Y-43891005D01*
X38894922Y-43891004D01*
X38765341Y-43784659D01*
X38658996Y-43655078D01*
X38581890Y-43510822D01*
X38579976Y-43507242D01*
X38531313Y-43346823D01*
X38514883Y-43180000D01*
X38531313Y-43013177D01*
X38579976Y-42852758D01*
X38658995Y-42704924D01*
X38658996Y-42704922D01*
X38765341Y-42575341D01*
X38894922Y-42468996D01*
X38910094Y-42460886D01*
X39042758Y-42389976D01*
X39203177Y-42341313D01*
X39328196Y-42329000D01*
X39411804Y-42329000D01*
X39536823Y-42341313D01*
X39536823Y-42341313D01*
G37*
G36*
X42637412Y-40423215D02*
G01*
X42941514Y-40549178D01*
X43215199Y-40732049D01*
X43447951Y-40964801D01*
X43630822Y-41238486D01*
X43756785Y-41542588D01*
X43821000Y-41865420D01*
X43821000Y-42194580D01*
X43756785Y-42517412D01*
X43630822Y-42821514D01*
X43447951Y-43095199D01*
X43215199Y-43327951D01*
X42941514Y-43510822D01*
X42637412Y-43636785D01*
X42314580Y-43701000D01*
X41985420Y-43701000D01*
X41662588Y-43636785D01*
X41358486Y-43510822D01*
X41084801Y-43327951D01*
X40852049Y-43095199D01*
X40669178Y-42821514D01*
X40543215Y-42517412D01*
X40479000Y-42194580D01*
X40479000Y-41865420D01*
X40543215Y-41542588D01*
X40669178Y-41238486D01*
X40852049Y-40964801D01*
X41084801Y-40732049D01*
X41358486Y-40549178D01*
X41662588Y-40423215D01*
X41985420Y-40359000D01*
X42314580Y-40359000D01*
X42637412Y-40423215D01*
X42637412Y-40423215D01*
G37*
G36*
X52237412Y-40423215D02*
G01*
X52541514Y-40549178D01*
X52815199Y-40732049D01*
X53047951Y-40964801D01*
X53230822Y-41238486D01*
X53356785Y-41542588D01*
X53421000Y-41865420D01*
X53421000Y-42194580D01*
X53356785Y-42517412D01*
X53230822Y-42821514D01*
X53047951Y-43095199D01*
X52815199Y-43327951D01*
X52541514Y-43510822D01*
X52237412Y-43636785D01*
X51914580Y-43701000D01*
X51585420Y-43701000D01*
X51262588Y-43636785D01*
X50958486Y-43510822D01*
X50684801Y-43327951D01*
X50452049Y-43095199D01*
X50269178Y-42821514D01*
X50143215Y-42517412D01*
X50079000Y-42194580D01*
X50079000Y-41865420D01*
X50143215Y-41542588D01*
X50269178Y-41238486D01*
X50452049Y-40964801D01*
X50684801Y-40732049D01*
X50958486Y-40549178D01*
X51262588Y-40423215D01*
X51585420Y-40359000D01*
X51914580Y-40359000D01*
X52237412Y-40423215D01*
X52237412Y-40423215D01*
G37*
G36*
X54776823Y-39801313D02*
G01*
X54937242Y-39849976D01*
X55069906Y-39920886D01*
X55085078Y-39928996D01*
X55214659Y-40035341D01*
X55321004Y-40164922D01*
X55321005Y-40164924D01*
X55400024Y-40312758D01*
X55448687Y-40473177D01*
X55465117Y-40640000D01*
X55448687Y-40806823D01*
X55448686Y-40806825D01*
X55400765Y-40964801D01*
X55400024Y-40967242D01*
X55329114Y-41099906D01*
X55321004Y-41115078D01*
X55214659Y-41244659D01*
X55085078Y-41351004D01*
X55085076Y-41351005D01*
X54937242Y-41430024D01*
X54776823Y-41478687D01*
X54651804Y-41491000D01*
X54568196Y-41491000D01*
X54443177Y-41478687D01*
X54282758Y-41430024D01*
X54134924Y-41351005D01*
X54134922Y-41351004D01*
X54005341Y-41244659D01*
X53898996Y-41115078D01*
X53890886Y-41099906D01*
X53819976Y-40967242D01*
X53819236Y-40964801D01*
X53771314Y-40806825D01*
X53771313Y-40806823D01*
X53754883Y-40640000D01*
X53771313Y-40473177D01*
X53819976Y-40312758D01*
X53898995Y-40164924D01*
X53898996Y-40164922D01*
X54005341Y-40035341D01*
X54134922Y-39928996D01*
X54150094Y-39920886D01*
X54282758Y-39849976D01*
X54443177Y-39801313D01*
X54568196Y-39789000D01*
X54651804Y-39789000D01*
X54776823Y-39801313D01*
X54776823Y-39801313D01*
G37*
G36*
X39536823Y-39801313D02*
G01*
X39697242Y-39849976D01*
X39829906Y-39920886D01*
X39845078Y-39928996D01*
X39974659Y-40035341D01*
X40081004Y-40164922D01*
X40081005Y-40164924D01*
X40160024Y-40312758D01*
X40208687Y-40473177D01*
X40225117Y-40640000D01*
X40208687Y-40806823D01*
X40208686Y-40806825D01*
X40160765Y-40964801D01*
X40160024Y-40967242D01*
X40089114Y-41099906D01*
X40081004Y-41115078D01*
X39974659Y-41244659D01*
X39845078Y-41351004D01*
X39845076Y-41351005D01*
X39697242Y-41430024D01*
X39536823Y-41478687D01*
X39411804Y-41491000D01*
X39328196Y-41491000D01*
X39203177Y-41478687D01*
X39042758Y-41430024D01*
X38894924Y-41351005D01*
X38894922Y-41351004D01*
X38765341Y-41244659D01*
X38658996Y-41115078D01*
X38650886Y-41099906D01*
X38579976Y-40967242D01*
X38579236Y-40964801D01*
X38531314Y-40806825D01*
X38531313Y-40806823D01*
X38514883Y-40640000D01*
X38531313Y-40473177D01*
X38579976Y-40312758D01*
X38658995Y-40164924D01*
X38658996Y-40164922D01*
X38765341Y-40035341D01*
X38894922Y-39928996D01*
X38910094Y-39920886D01*
X39042758Y-39849976D01*
X39203177Y-39801313D01*
X39328196Y-39789000D01*
X39411804Y-39789000D01*
X39536823Y-39801313D01*
X39536823Y-39801313D01*
G37*
G36*
X39536823Y-37261313D02*
G01*
X39697242Y-37309976D01*
X39829906Y-37380886D01*
X39845078Y-37388996D01*
X39974659Y-37495341D01*
X40081004Y-37624922D01*
X40081005Y-37624924D01*
X40160024Y-37772758D01*
X40208687Y-37933177D01*
X40225117Y-38100000D01*
X40208687Y-38266823D01*
X40160024Y-38427242D01*
X40089114Y-38559906D01*
X40081004Y-38575078D01*
X39974659Y-38704659D01*
X39845078Y-38811004D01*
X39845076Y-38811005D01*
X39697242Y-38890024D01*
X39536823Y-38938687D01*
X39411804Y-38951000D01*
X39328196Y-38951000D01*
X39203177Y-38938687D01*
X39042758Y-38890024D01*
X38894924Y-38811005D01*
X38894922Y-38811004D01*
X38765341Y-38704659D01*
X38658996Y-38575078D01*
X38650886Y-38559906D01*
X38579976Y-38427242D01*
X38531313Y-38266823D01*
X38514883Y-38100000D01*
X38531313Y-37933177D01*
X38579976Y-37772758D01*
X38658995Y-37624924D01*
X38658996Y-37624922D01*
X38765341Y-37495341D01*
X38894922Y-37388996D01*
X38910094Y-37380886D01*
X39042758Y-37309976D01*
X39203177Y-37261313D01*
X39328196Y-37249000D01*
X39411804Y-37249000D01*
X39536823Y-37261313D01*
X39536823Y-37261313D01*
G37*
G36*
X54776823Y-37261313D02*
G01*
X54937242Y-37309976D01*
X55069906Y-37380886D01*
X55085078Y-37388996D01*
X55214659Y-37495341D01*
X55321004Y-37624922D01*
X55321005Y-37624924D01*
X55400024Y-37772758D01*
X55448687Y-37933177D01*
X55465117Y-38100000D01*
X55448687Y-38266823D01*
X55400024Y-38427242D01*
X55329114Y-38559906D01*
X55321004Y-38575078D01*
X55214659Y-38704659D01*
X55085078Y-38811004D01*
X55085076Y-38811005D01*
X54937242Y-38890024D01*
X54776823Y-38938687D01*
X54651804Y-38951000D01*
X54568196Y-38951000D01*
X54443177Y-38938687D01*
X54282758Y-38890024D01*
X54134924Y-38811005D01*
X54134922Y-38811004D01*
X54005341Y-38704659D01*
X53898996Y-38575078D01*
X53890886Y-38559906D01*
X53819976Y-38427242D01*
X53771313Y-38266823D01*
X53754883Y-38100000D01*
X53771313Y-37933177D01*
X53819976Y-37772758D01*
X53898995Y-37624924D01*
X53898996Y-37624922D01*
X54005341Y-37495341D01*
X54134922Y-37388996D01*
X54150094Y-37380886D01*
X54282758Y-37309976D01*
X54443177Y-37261313D01*
X54568196Y-37249000D01*
X54651804Y-37249000D01*
X54776823Y-37261313D01*
X54776823Y-37261313D01*
G37*
G36*
X54776823Y-34721313D02*
G01*
X54937242Y-34769976D01*
X55069906Y-34840886D01*
X55085078Y-34848996D01*
X55214659Y-34955341D01*
X55321004Y-35084922D01*
X55321005Y-35084924D01*
X55400024Y-35232758D01*
X55448687Y-35393177D01*
X55465117Y-35560000D01*
X55448687Y-35726823D01*
X55400024Y-35887242D01*
X55329114Y-36019906D01*
X55321004Y-36035078D01*
X55214659Y-36164659D01*
X55085078Y-36271004D01*
X55085076Y-36271005D01*
X54937242Y-36350024D01*
X54776823Y-36398687D01*
X54651804Y-36411000D01*
X54568196Y-36411000D01*
X54443177Y-36398687D01*
X54282758Y-36350024D01*
X54134924Y-36271005D01*
X54134922Y-36271004D01*
X54005341Y-36164659D01*
X53898996Y-36035078D01*
X53890886Y-36019906D01*
X53819976Y-35887242D01*
X53771313Y-35726823D01*
X53754883Y-35560000D01*
X53771313Y-35393177D01*
X53819976Y-35232758D01*
X53898995Y-35084924D01*
X53898996Y-35084922D01*
X54005341Y-34955341D01*
X54134922Y-34848996D01*
X54150094Y-34840886D01*
X54282758Y-34769976D01*
X54443177Y-34721313D01*
X54568196Y-34709000D01*
X54651804Y-34709000D01*
X54776823Y-34721313D01*
X54776823Y-34721313D01*
G37*
G36*
X39536823Y-34721313D02*
G01*
X39697242Y-34769976D01*
X39829906Y-34840886D01*
X39845078Y-34848996D01*
X39974659Y-34955341D01*
X40081004Y-35084922D01*
X40081005Y-35084924D01*
X40160024Y-35232758D01*
X40208687Y-35393177D01*
X40225117Y-35560000D01*
X40208687Y-35726823D01*
X40160024Y-35887242D01*
X40089114Y-36019906D01*
X40081004Y-36035078D01*
X39974659Y-36164659D01*
X39845078Y-36271004D01*
X39845076Y-36271005D01*
X39697242Y-36350024D01*
X39536823Y-36398687D01*
X39411804Y-36411000D01*
X39328196Y-36411000D01*
X39203177Y-36398687D01*
X39042758Y-36350024D01*
X38894924Y-36271005D01*
X38894922Y-36271004D01*
X38765341Y-36164659D01*
X38658996Y-36035078D01*
X38650886Y-36019906D01*
X38579976Y-35887242D01*
X38531313Y-35726823D01*
X38514883Y-35560000D01*
X38531313Y-35393177D01*
X38579976Y-35232758D01*
X38658995Y-35084924D01*
X38658996Y-35084922D01*
X38765341Y-34955341D01*
X38894922Y-34848996D01*
X38910094Y-34840886D01*
X39042758Y-34769976D01*
X39203177Y-34721313D01*
X39328196Y-34709000D01*
X39411804Y-34709000D01*
X39536823Y-34721313D01*
X39536823Y-34721313D01*
G37*
G36*
X47941000Y-33971000D02*
G01*
X46039000Y-33971000D01*
X46039000Y-32069000D01*
X47941000Y-32069000D01*
X47941000Y-33971000D01*
X47941000Y-33971000D01*
G37*
G36*
X54776823Y-32181313D02*
G01*
X54937242Y-32229976D01*
X55069906Y-32300886D01*
X55085078Y-32308996D01*
X55214659Y-32415341D01*
X55321004Y-32544922D01*
X55321005Y-32544924D01*
X55400024Y-32692758D01*
X55448687Y-32853177D01*
X55465117Y-33020000D01*
X55448687Y-33186823D01*
X55400024Y-33347242D01*
X55329114Y-33479906D01*
X55321004Y-33495078D01*
X55214659Y-33624659D01*
X55085078Y-33731004D01*
X55085076Y-33731005D01*
X54937242Y-33810024D01*
X54776823Y-33858687D01*
X54651804Y-33871000D01*
X54568196Y-33871000D01*
X54443177Y-33858687D01*
X54282758Y-33810024D01*
X54134924Y-33731005D01*
X54134922Y-33731004D01*
X54005341Y-33624659D01*
X53898996Y-33495078D01*
X53890886Y-33479906D01*
X53819976Y-33347242D01*
X53771313Y-33186823D01*
X53754883Y-33020000D01*
X53771313Y-32853177D01*
X53819976Y-32692758D01*
X53898995Y-32544924D01*
X53898996Y-32544922D01*
X54005341Y-32415341D01*
X54134922Y-32308996D01*
X54150094Y-32300886D01*
X54282758Y-32229976D01*
X54443177Y-32181313D01*
X54568196Y-32169000D01*
X54651804Y-32169000D01*
X54776823Y-32181313D01*
X54776823Y-32181313D01*
G37*
G36*
X39536823Y-32181313D02*
G01*
X39697242Y-32229976D01*
X39829906Y-32300886D01*
X39845078Y-32308996D01*
X39974659Y-32415341D01*
X40081004Y-32544922D01*
X40081005Y-32544924D01*
X40160024Y-32692758D01*
X40208687Y-32853177D01*
X40225117Y-33020000D01*
X40208687Y-33186823D01*
X40160024Y-33347242D01*
X40089114Y-33479906D01*
X40081004Y-33495078D01*
X39974659Y-33624659D01*
X39845078Y-33731004D01*
X39845076Y-33731005D01*
X39697242Y-33810024D01*
X39536823Y-33858687D01*
X39411804Y-33871000D01*
X39328196Y-33871000D01*
X39203177Y-33858687D01*
X39042758Y-33810024D01*
X38894924Y-33731005D01*
X38894922Y-33731004D01*
X38765341Y-33624659D01*
X38658996Y-33495078D01*
X38650886Y-33479906D01*
X38579976Y-33347242D01*
X38531313Y-33186823D01*
X38514883Y-33020000D01*
X38531313Y-32853177D01*
X38579976Y-32692758D01*
X38658995Y-32544924D01*
X38658996Y-32544922D01*
X38765341Y-32415341D01*
X38894922Y-32308996D01*
X38910094Y-32300886D01*
X39042758Y-32229976D01*
X39203177Y-32181313D01*
X39328196Y-32169000D01*
X39411804Y-32169000D01*
X39536823Y-32181313D01*
X39536823Y-32181313D01*
G37*
G36*
X47267395Y-29565546D02*
G01*
X47440466Y-29637234D01*
X47440467Y-29637235D01*
X47596227Y-29741310D01*
X47728690Y-29873773D01*
X47728691Y-29873775D01*
X47832766Y-30029534D01*
X47904454Y-30202605D01*
X47941000Y-30386333D01*
X47941000Y-30573667D01*
X47904454Y-30757395D01*
X47832766Y-30930466D01*
X47832765Y-30930467D01*
X47728690Y-31086227D01*
X47596227Y-31218690D01*
X47517818Y-31271081D01*
X47440466Y-31322766D01*
X47267395Y-31394454D01*
X47083667Y-31431000D01*
X46896333Y-31431000D01*
X46712605Y-31394454D01*
X46539534Y-31322766D01*
X46462182Y-31271081D01*
X46383773Y-31218690D01*
X46251310Y-31086227D01*
X46147235Y-30930467D01*
X46147234Y-30930466D01*
X46075546Y-30757395D01*
X46039000Y-30573667D01*
X46039000Y-30386333D01*
X46075546Y-30202605D01*
X46147234Y-30029534D01*
X46251309Y-29873775D01*
X46251310Y-29873773D01*
X46383773Y-29741310D01*
X46539533Y-29637235D01*
X46539534Y-29637234D01*
X46712605Y-29565546D01*
X46896333Y-29529000D01*
X47083667Y-29529000D01*
X47267395Y-29565546D01*
X47267395Y-29565546D01*
G37*
M02*
