G04 #@! TF.GenerationSoftware,KiCad,Pcbnew,(5.1.2)-2*
G04 #@! TF.CreationDate,2019-07-05T08:21:06+01:00*
G04 #@! TF.ProjectId,mod_synth_clk,6d6f645f-7379-46e7-9468-5f636c6b2e6b,rev?*
G04 #@! TF.SameCoordinates,Original*
G04 #@! TF.FileFunction,Legend,Bot*
G04 #@! TF.FilePolarity,Positive*
%FSLAX46Y46*%
G04 Gerber Fmt 4.6, Leading zero omitted, Abs format (unit mm)*
G04 Created by KiCad (PCBNEW (5.1.2)-2) date 2019-07-05 08:21:06*
%MOMM*%
%LPD*%
G04 APERTURE LIST*
%ADD10C,0.120000*%
%ADD11C,0.150000*%
G04 APERTURE END LIST*
D10*
X42065000Y-122440000D02*
X44605000Y-122440000D01*
X42065000Y-122440000D02*
X42065000Y-119900000D01*
X42315000Y-122190000D02*
X51665000Y-122190000D01*
X42315000Y-93710000D02*
X42315000Y-122190000D01*
X51665000Y-93710000D02*
X42315000Y-93710000D01*
X51665000Y-122190000D02*
X51665000Y-93710000D01*
X52070000Y-84050000D02*
X52070000Y-83280000D01*
X52070000Y-75970000D02*
X52070000Y-76740000D01*
X50700000Y-83280000D02*
X50700000Y-76740000D01*
X53440000Y-83280000D02*
X50700000Y-83280000D01*
X53440000Y-76740000D02*
X53440000Y-83280000D01*
X50700000Y-76740000D02*
X53440000Y-76740000D01*
X44450000Y-84050000D02*
X44450000Y-83280000D01*
X44450000Y-75970000D02*
X44450000Y-76740000D01*
X43080000Y-83280000D02*
X43080000Y-76740000D01*
X45820000Y-83280000D02*
X43080000Y-83280000D01*
X45820000Y-76740000D02*
X45820000Y-83280000D01*
X43080000Y-76740000D02*
X45820000Y-76740000D01*
X47140000Y-78490000D02*
X49380000Y-78490000D01*
X47140000Y-78730000D02*
X49380000Y-78730000D01*
X47140000Y-78610000D02*
X49380000Y-78610000D01*
X48260000Y-82780000D02*
X48260000Y-82130000D01*
X48260000Y-77240000D02*
X48260000Y-77890000D01*
X47140000Y-82130000D02*
X47140000Y-77890000D01*
X49380000Y-82130000D02*
X47140000Y-82130000D01*
X49380000Y-77890000D02*
X49380000Y-82130000D01*
X47140000Y-77890000D02*
X49380000Y-77890000D01*
X56010000Y-72520000D02*
X37970000Y-72520000D01*
X56010000Y-29080000D02*
X56010000Y-72520000D01*
X37970000Y-29080000D02*
X56010000Y-29080000D01*
X40640000Y-31750000D02*
X37970000Y-31750000D01*
X40640000Y-67310000D02*
X40640000Y-31750000D01*
X40640000Y-67310000D02*
X37970000Y-67310000D01*
X53340000Y-31750000D02*
X56010000Y-31750000D01*
X53340000Y-69850000D02*
X53340000Y-31750000D01*
X53340000Y-69850000D02*
X56010000Y-69850000D01*
X37970000Y-72520000D02*
X37970000Y-69850000D01*
X37970000Y-67310000D02*
X37970000Y-29080000D01*
X40640000Y-69850000D02*
X37970000Y-69850000D01*
X40640000Y-67310000D02*
X40640000Y-69850000D01*
D11*
X47323333Y-122896380D02*
X47323333Y-123610666D01*
X47370952Y-123753523D01*
X47466190Y-123848761D01*
X47609047Y-123896380D01*
X47704285Y-123896380D01*
X46894761Y-122991619D02*
X46847142Y-122944000D01*
X46751904Y-122896380D01*
X46513809Y-122896380D01*
X46418571Y-122944000D01*
X46370952Y-122991619D01*
X46323333Y-123086857D01*
X46323333Y-123182095D01*
X46370952Y-123324952D01*
X46942380Y-123896380D01*
X46323333Y-123896380D01*
X50152380Y-79843333D02*
X49676190Y-79510000D01*
X50152380Y-79271904D02*
X49152380Y-79271904D01*
X49152380Y-79652857D01*
X49200000Y-79748095D01*
X49247619Y-79795714D01*
X49342857Y-79843333D01*
X49485714Y-79843333D01*
X49580952Y-79795714D01*
X49628571Y-79748095D01*
X49676190Y-79652857D01*
X49676190Y-79271904D01*
X49247619Y-80224285D02*
X49200000Y-80271904D01*
X49152380Y-80367142D01*
X49152380Y-80605238D01*
X49200000Y-80700476D01*
X49247619Y-80748095D01*
X49342857Y-80795714D01*
X49438095Y-80795714D01*
X49580952Y-80748095D01*
X50152380Y-80176666D01*
X50152380Y-80795714D01*
X42532380Y-79843333D02*
X42056190Y-79510000D01*
X42532380Y-79271904D02*
X41532380Y-79271904D01*
X41532380Y-79652857D01*
X41580000Y-79748095D01*
X41627619Y-79795714D01*
X41722857Y-79843333D01*
X41865714Y-79843333D01*
X41960952Y-79795714D01*
X42008571Y-79748095D01*
X42056190Y-79652857D01*
X42056190Y-79271904D01*
X42532380Y-80795714D02*
X42532380Y-80224285D01*
X42532380Y-80510000D02*
X41532380Y-80510000D01*
X41675238Y-80414761D01*
X41770476Y-80319523D01*
X41818095Y-80224285D01*
X46592380Y-79271904D02*
X45592380Y-79271904D01*
X45592380Y-79510000D01*
X45640000Y-79652857D01*
X45735238Y-79748095D01*
X45830476Y-79795714D01*
X46020952Y-79843333D01*
X46163809Y-79843333D01*
X46354285Y-79795714D01*
X46449523Y-79748095D01*
X46544761Y-79652857D01*
X46592380Y-79510000D01*
X46592380Y-79271904D01*
X46592380Y-80795714D02*
X46592380Y-80224285D01*
X46592380Y-80510000D02*
X45592380Y-80510000D01*
X45735238Y-80414761D01*
X45830476Y-80319523D01*
X45878095Y-80224285D01*
X46912380Y-75938095D02*
X45912380Y-75938095D01*
X46912380Y-76509523D02*
X46340952Y-76080952D01*
X45912380Y-76509523D02*
X46483809Y-75938095D01*
X47704285Y-73826666D02*
X47228095Y-73826666D01*
X47799523Y-74112380D02*
X47466190Y-73112380D01*
X47132857Y-74112380D01*
X46275714Y-74112380D02*
X46847142Y-74112380D01*
X46561428Y-74112380D02*
X46561428Y-73112380D01*
X46656666Y-73255238D01*
X46751904Y-73350476D01*
X46847142Y-73398095D01*
M02*
