M48
; DRILL file {KiCad (5.1.2)-2} date 05/07/2019 08:22:44
; FORMAT={3:3/ absolute / metric / suppress leading zeros}
; #@! TF.CreationDate,2019-07-05T08:22:44+01:00
; #@! TF.GenerationSoftware,Kicad,Pcbnew,(5.1.2)-2
FMAT,2
METRIC,TZ
T1C0.800
T2C0.900
T3C1.000
T4C1.016
T5C1.220
T6C1.420
T7C1.430
T8C1.800
%
G90
G05
T1
X48260Y-76200
X48260Y-83820
X39370Y-33020
X39370Y-35560
X39370Y-38100
X39370Y-40640
X39370Y-43180
X39370Y-45720
X39370Y-48260
X39370Y-50800
X39370Y-53340
X39370Y-55880
X39370Y-58420
X39370Y-60960
X39370Y-63500
X39370Y-66040
X39370Y-68580
X54610Y-33020
X54610Y-35560
X54610Y-38100
X54610Y-40640
X54610Y-43180
X54610Y-45720
X54610Y-48260
X54610Y-50800
X54610Y-53340
X54610Y-55880
X54610Y-58420
X54610Y-60960
X54610Y-63500
X54610Y-66040
X54610Y-68580
X52070Y-74930
X52070Y-85090
X44450Y-74930
X44450Y-85090
T2
X46990Y-30480
X46990Y-33020
T3
X44450Y-49530
X46950Y-49530
X49450Y-49530
X44450Y-64770
X46950Y-64770
X49450Y-64770
T4
X45720Y-99060
X45720Y-101600
X45720Y-104140
X45720Y-106680
X45720Y-109220
X45720Y-111760
X45720Y-114300
X45720Y-116840
X48260Y-99060
X48260Y-101600
X48260Y-104140
X48260Y-106680
X48260Y-109220
X48260Y-111760
X48260Y-114300
X48260Y-116840
T5
X40640Y-132080
T6
X43740Y-132080
T7
X52040Y-132080
T8
X42150Y-42030
X51750Y-42030
X42150Y-57270
X51750Y-57270
T0
M30
