G04 #@! TF.GenerationSoftware,KiCad,Pcbnew,(5.1.2)-2*
G04 #@! TF.CreationDate,2019-07-05T08:21:06+01:00*
G04 #@! TF.ProjectId,mod_synth_clk,6d6f645f-7379-46e7-9468-5f636c6b2e6b,rev?*
G04 #@! TF.SameCoordinates,Original*
G04 #@! TF.FileFunction,Copper,L2,Bot*
G04 #@! TF.FilePolarity,Positive*
%FSLAX46Y46*%
G04 Gerber Fmt 4.6, Leading zero omitted, Abs format (unit mm)*
G04 Created by KiCad (PCBNEW (5.1.2)-2) date 2019-07-05 08:21:06*
%MOMM*%
%LPD*%
G04 APERTURE LIST*
%ADD10O,1.727200X1.727200*%
%ADD11R,1.727200X1.727200*%
%ADD12C,3.240000*%
%ADD13C,1.800000*%
%ADD14R,1.800000X1.800000*%
%ADD15O,1.600000X1.600000*%
%ADD16C,1.600000*%
%ADD17C,2.130000*%
%ADD18R,1.830000X1.930000*%
%ADD19R,1.600000X1.600000*%
%ADD20C,0.250000*%
%ADD21C,0.254000*%
G04 APERTURE END LIST*
D10*
X48260000Y-99060000D03*
X45720000Y-99060000D03*
X48260000Y-101600000D03*
X45720000Y-101600000D03*
X48260000Y-104140000D03*
X45720000Y-104140000D03*
X48260000Y-106680000D03*
X45720000Y-106680000D03*
X48260000Y-109220000D03*
X45720000Y-109220000D03*
X48260000Y-111760000D03*
X45720000Y-111760000D03*
X48260000Y-114300000D03*
X45720000Y-114300000D03*
X48260000Y-116840000D03*
D11*
X45720000Y-116840000D03*
D12*
X42150000Y-57270000D03*
X51750000Y-57270000D03*
D13*
X49450000Y-64770000D03*
X46950000Y-64770000D03*
D14*
X44450000Y-64770000D03*
D12*
X42150000Y-42030000D03*
X51750000Y-42030000D03*
D13*
X49450000Y-49530000D03*
X46950000Y-49530000D03*
D14*
X44450000Y-49530000D03*
D15*
X52070000Y-85090000D03*
D16*
X52070000Y-74930000D03*
D15*
X44450000Y-85090000D03*
D16*
X44450000Y-74930000D03*
D17*
X52040000Y-132080000D03*
D18*
X40640000Y-132080000D03*
D17*
X43740000Y-132080000D03*
D13*
X46990000Y-30480000D03*
D14*
X46990000Y-33020000D03*
D15*
X48260000Y-83820000D03*
D19*
X48260000Y-76200000D03*
D15*
X54610000Y-33020000D03*
X39370000Y-33020000D03*
X54610000Y-68580000D03*
X39370000Y-35560000D03*
X54610000Y-66040000D03*
X39370000Y-38100000D03*
X54610000Y-63500000D03*
X39370000Y-40640000D03*
X54610000Y-60960000D03*
X39370000Y-43180000D03*
X54610000Y-58420000D03*
X39370000Y-45720000D03*
X54610000Y-55880000D03*
X39370000Y-48260000D03*
X54610000Y-53340000D03*
X39370000Y-50800000D03*
X54610000Y-50800000D03*
X39370000Y-53340000D03*
X54610000Y-48260000D03*
X39370000Y-55880000D03*
X54610000Y-45720000D03*
X39370000Y-58420000D03*
X54610000Y-43180000D03*
X39370000Y-60960000D03*
X54610000Y-40640000D03*
X39370000Y-63500000D03*
X54610000Y-38100000D03*
X39370000Y-66040000D03*
X54610000Y-35560000D03*
D19*
X39370000Y-68580000D03*
D20*
X44450000Y-45720000D02*
X44450000Y-35560000D01*
X52070000Y-33020000D02*
X54610000Y-33020000D01*
X44450000Y-35560000D02*
X52070000Y-35560000D01*
X41910000Y-53340000D02*
X41910000Y-45720000D01*
X52070000Y-35560000D02*
X52070000Y-33020000D01*
X49530000Y-83820000D02*
X49530000Y-67310000D01*
X44450000Y-53340000D02*
X41910000Y-53340000D01*
X48260000Y-83820000D02*
X49530000Y-83820000D01*
X49530000Y-67310000D02*
X41910000Y-67310000D01*
X41910000Y-67310000D02*
X41910000Y-60960000D01*
X41910000Y-45720000D02*
X44450000Y-45720000D01*
X41910000Y-60960000D02*
X44450000Y-60960000D01*
X44450000Y-60960000D02*
X44450000Y-53340000D01*
X45720000Y-104140000D02*
X48260000Y-104140000D01*
X54610000Y-60960000D02*
X49530000Y-60960000D01*
X49450000Y-61040000D02*
X49450000Y-64770000D01*
X49530000Y-60960000D02*
X49450000Y-61040000D01*
X49450000Y-49530000D02*
X49450000Y-60880000D01*
X49450000Y-60880000D02*
X49450000Y-64770000D01*
X52034999Y-45755001D02*
X54610000Y-43180000D01*
X48224999Y-45755001D02*
X52034999Y-45755001D01*
X48224999Y-52105001D02*
X48224999Y-45755001D01*
X46950000Y-64770000D02*
X46950000Y-53380000D01*
X46950000Y-53380000D02*
X48224999Y-52105001D01*
X54610000Y-40640000D02*
X52070000Y-38100000D01*
X52070000Y-38100000D02*
X46990000Y-38100000D01*
X46950000Y-38140000D02*
X46950000Y-49530000D01*
X46990000Y-38100000D02*
X46950000Y-38140000D01*
D21*
G36*
X53411068Y-33821101D02*
G01*
X53590392Y-34039608D01*
X53808899Y-34218932D01*
X53941858Y-34290000D01*
X53808899Y-34361068D01*
X53590392Y-34540392D01*
X53411068Y-34758899D01*
X53277818Y-35008192D01*
X53195764Y-35278691D01*
X53168057Y-35560000D01*
X53195764Y-35841309D01*
X53277818Y-36111808D01*
X53411068Y-36361101D01*
X53590392Y-36579608D01*
X53808899Y-36758932D01*
X53941858Y-36830000D01*
X53808899Y-36901068D01*
X53590392Y-37080392D01*
X53411068Y-37298899D01*
X53277818Y-37548192D01*
X53195764Y-37818691D01*
X53168057Y-38100000D01*
X53170598Y-38125796D01*
X52633804Y-37589003D01*
X52610001Y-37559999D01*
X52494276Y-37465026D01*
X52362247Y-37394454D01*
X52218986Y-37350997D01*
X52107333Y-37340000D01*
X52107322Y-37340000D01*
X52070000Y-37336324D01*
X52032678Y-37340000D01*
X47027333Y-37340000D01*
X46990000Y-37336323D01*
X46952667Y-37340000D01*
X46841014Y-37350997D01*
X46697753Y-37394454D01*
X46565724Y-37465026D01*
X46449999Y-37559999D01*
X46431969Y-37581969D01*
X46409999Y-37599999D01*
X46354871Y-37667174D01*
X46315026Y-37715724D01*
X46265835Y-37807753D01*
X46244454Y-37847754D01*
X46200997Y-37991015D01*
X46190000Y-38102668D01*
X46190000Y-38102678D01*
X46186324Y-38140000D01*
X46190000Y-38177322D01*
X46190001Y-48191687D01*
X45971495Y-48337688D01*
X45933880Y-48375303D01*
X45880537Y-48275506D01*
X45801185Y-48178815D01*
X45704494Y-48099463D01*
X45594180Y-48040498D01*
X45474482Y-48004188D01*
X45350000Y-47991928D01*
X44735750Y-47995000D01*
X44577000Y-48153750D01*
X44577000Y-49403000D01*
X44597000Y-49403000D01*
X44597000Y-49657000D01*
X44577000Y-49657000D01*
X44577000Y-50906250D01*
X44735750Y-51065000D01*
X45350000Y-51068072D01*
X45474482Y-51055812D01*
X45594180Y-51019502D01*
X45704494Y-50960537D01*
X45801185Y-50881185D01*
X45880537Y-50784494D01*
X45933880Y-50684697D01*
X45971495Y-50722312D01*
X46222905Y-50890299D01*
X46502257Y-51006011D01*
X46798816Y-51065000D01*
X47101184Y-51065000D01*
X47397743Y-51006011D01*
X47464999Y-50978152D01*
X47464999Y-51790199D01*
X46438998Y-52816201D01*
X46410000Y-52839999D01*
X46386202Y-52868997D01*
X46386201Y-52868998D01*
X46315026Y-52955724D01*
X46244454Y-53087754D01*
X46200998Y-53231015D01*
X46186324Y-53380000D01*
X46190001Y-53417332D01*
X46190000Y-63431687D01*
X45971495Y-63577688D01*
X45933880Y-63615303D01*
X45880537Y-63515506D01*
X45801185Y-63418815D01*
X45704494Y-63339463D01*
X45594180Y-63280498D01*
X45474482Y-63244188D01*
X45350000Y-63231928D01*
X44735750Y-63235000D01*
X44577000Y-63393750D01*
X44577000Y-64643000D01*
X44597000Y-64643000D01*
X44597000Y-64897000D01*
X44577000Y-64897000D01*
X44577000Y-66146250D01*
X44735750Y-66305000D01*
X45350000Y-66308072D01*
X45474482Y-66295812D01*
X45594180Y-66259502D01*
X45704494Y-66200537D01*
X45801185Y-66121185D01*
X45880537Y-66024494D01*
X45933880Y-65924697D01*
X45971495Y-65962312D01*
X46222905Y-66130299D01*
X46502257Y-66246011D01*
X46798816Y-66305000D01*
X47101184Y-66305000D01*
X47397743Y-66246011D01*
X47677095Y-66130299D01*
X47928505Y-65962312D01*
X48142312Y-65748505D01*
X48200000Y-65662169D01*
X48257688Y-65748505D01*
X48471495Y-65962312D01*
X48722905Y-66130299D01*
X49002257Y-66246011D01*
X49298816Y-66305000D01*
X49601184Y-66305000D01*
X49897743Y-66246011D01*
X50177095Y-66130299D01*
X50428505Y-65962312D01*
X50642312Y-65748505D01*
X50810299Y-65497095D01*
X50926011Y-65217743D01*
X50985000Y-64921184D01*
X50985000Y-64618816D01*
X50926011Y-64322257D01*
X50810299Y-64042905D01*
X50642312Y-63791495D01*
X50428505Y-63577688D01*
X50210000Y-63431687D01*
X50210000Y-61720000D01*
X53389099Y-61720000D01*
X53411068Y-61761101D01*
X53590392Y-61979608D01*
X53808899Y-62158932D01*
X53941858Y-62230000D01*
X53808899Y-62301068D01*
X53590392Y-62480392D01*
X53411068Y-62698899D01*
X53277818Y-62948192D01*
X53195764Y-63218691D01*
X53168057Y-63500000D01*
X53195764Y-63781309D01*
X53277818Y-64051808D01*
X53411068Y-64301101D01*
X53590392Y-64519608D01*
X53808899Y-64698932D01*
X53946682Y-64772579D01*
X53754869Y-64887615D01*
X53546481Y-65076586D01*
X53378963Y-65302580D01*
X53258754Y-65556913D01*
X53218096Y-65690961D01*
X53340085Y-65913000D01*
X54483000Y-65913000D01*
X54483000Y-65893000D01*
X54737000Y-65893000D01*
X54737000Y-65913000D01*
X54757000Y-65913000D01*
X54757000Y-66167000D01*
X54737000Y-66167000D01*
X54737000Y-66187000D01*
X54483000Y-66187000D01*
X54483000Y-66167000D01*
X53340085Y-66167000D01*
X53218096Y-66389039D01*
X53258754Y-66523087D01*
X53378963Y-66777420D01*
X53546481Y-67003414D01*
X53754869Y-67192385D01*
X53946682Y-67307421D01*
X53808899Y-67381068D01*
X53590392Y-67560392D01*
X53411068Y-67778899D01*
X53277818Y-68028192D01*
X53195764Y-68298691D01*
X53168057Y-68580000D01*
X53195764Y-68861309D01*
X53277818Y-69131808D01*
X53411068Y-69381101D01*
X53590392Y-69599608D01*
X53808899Y-69778932D01*
X54058192Y-69912182D01*
X54328691Y-69994236D01*
X54539508Y-70015000D01*
X54680492Y-70015000D01*
X54891309Y-69994236D01*
X55161808Y-69912182D01*
X55220001Y-69881077D01*
X55220000Y-137770000D01*
X38760000Y-137770000D01*
X38760000Y-133045000D01*
X39086928Y-133045000D01*
X39099188Y-133169482D01*
X39135498Y-133289180D01*
X39194463Y-133399494D01*
X39273815Y-133496185D01*
X39370506Y-133575537D01*
X39480820Y-133634502D01*
X39600518Y-133670812D01*
X39725000Y-133683072D01*
X40354250Y-133680000D01*
X40513000Y-133521250D01*
X40513000Y-132207000D01*
X39248750Y-132207000D01*
X39090000Y-132365750D01*
X39086928Y-133045000D01*
X38760000Y-133045000D01*
X38760000Y-131115000D01*
X39086928Y-131115000D01*
X39090000Y-131794250D01*
X39248750Y-131953000D01*
X40513000Y-131953000D01*
X40513000Y-130638750D01*
X40767000Y-130638750D01*
X40767000Y-131953000D01*
X40787000Y-131953000D01*
X40787000Y-132207000D01*
X40767000Y-132207000D01*
X40767000Y-133521250D01*
X40925750Y-133680000D01*
X41555000Y-133683072D01*
X41679482Y-133670812D01*
X41799180Y-133634502D01*
X41909494Y-133575537D01*
X42006185Y-133496185D01*
X42085537Y-133399494D01*
X42144502Y-133289180D01*
X42180812Y-133169482D01*
X42193072Y-133045000D01*
X42191895Y-132784860D01*
X42233479Y-132885252D01*
X42419523Y-133163687D01*
X42656313Y-133400477D01*
X42934748Y-133586521D01*
X43244128Y-133714670D01*
X43572565Y-133780000D01*
X43907435Y-133780000D01*
X44235872Y-133714670D01*
X44545252Y-133586521D01*
X44823687Y-133400477D01*
X45060477Y-133163687D01*
X45246521Y-132885252D01*
X45374670Y-132575872D01*
X45440000Y-132247435D01*
X45440000Y-131912565D01*
X50340000Y-131912565D01*
X50340000Y-132247435D01*
X50405330Y-132575872D01*
X50533479Y-132885252D01*
X50719523Y-133163687D01*
X50956313Y-133400477D01*
X51234748Y-133586521D01*
X51544128Y-133714670D01*
X51872565Y-133780000D01*
X52207435Y-133780000D01*
X52535872Y-133714670D01*
X52845252Y-133586521D01*
X53123687Y-133400477D01*
X53360477Y-133163687D01*
X53546521Y-132885252D01*
X53674670Y-132575872D01*
X53740000Y-132247435D01*
X53740000Y-131912565D01*
X53674670Y-131584128D01*
X53546521Y-131274748D01*
X53360477Y-130996313D01*
X53123687Y-130759523D01*
X52845252Y-130573479D01*
X52535872Y-130445330D01*
X52207435Y-130380000D01*
X51872565Y-130380000D01*
X51544128Y-130445330D01*
X51234748Y-130573479D01*
X50956313Y-130759523D01*
X50719523Y-130996313D01*
X50533479Y-131274748D01*
X50405330Y-131584128D01*
X50340000Y-131912565D01*
X45440000Y-131912565D01*
X45374670Y-131584128D01*
X45246521Y-131274748D01*
X45060477Y-130996313D01*
X44823687Y-130759523D01*
X44545252Y-130573479D01*
X44235872Y-130445330D01*
X43907435Y-130380000D01*
X43572565Y-130380000D01*
X43244128Y-130445330D01*
X42934748Y-130573479D01*
X42656313Y-130759523D01*
X42419523Y-130996313D01*
X42233479Y-131274748D01*
X42191895Y-131375140D01*
X42193072Y-131115000D01*
X42180812Y-130990518D01*
X42144502Y-130870820D01*
X42085537Y-130760506D01*
X42006185Y-130663815D01*
X41909494Y-130584463D01*
X41799180Y-130525498D01*
X41679482Y-130489188D01*
X41555000Y-130476928D01*
X40925750Y-130480000D01*
X40767000Y-130638750D01*
X40513000Y-130638750D01*
X40354250Y-130480000D01*
X39725000Y-130476928D01*
X39600518Y-130489188D01*
X39480820Y-130525498D01*
X39370506Y-130584463D01*
X39273815Y-130663815D01*
X39194463Y-130760506D01*
X39135498Y-130870820D01*
X39099188Y-130990518D01*
X39086928Y-131115000D01*
X38760000Y-131115000D01*
X38760000Y-99060000D01*
X44214149Y-99060000D01*
X44243084Y-99353777D01*
X44328775Y-99636264D01*
X44467931Y-99896606D01*
X44655203Y-100124797D01*
X44883394Y-100312069D01*
X44916940Y-100330000D01*
X44883394Y-100347931D01*
X44655203Y-100535203D01*
X44467931Y-100763394D01*
X44328775Y-101023736D01*
X44243084Y-101306223D01*
X44214149Y-101600000D01*
X44243084Y-101893777D01*
X44328775Y-102176264D01*
X44467931Y-102436606D01*
X44655203Y-102664797D01*
X44883394Y-102852069D01*
X44916940Y-102870000D01*
X44883394Y-102887931D01*
X44655203Y-103075203D01*
X44467931Y-103303394D01*
X44328775Y-103563736D01*
X44243084Y-103846223D01*
X44214149Y-104140000D01*
X44243084Y-104433777D01*
X44328775Y-104716264D01*
X44467931Y-104976606D01*
X44655203Y-105204797D01*
X44883394Y-105392069D01*
X44916940Y-105410000D01*
X44883394Y-105427931D01*
X44655203Y-105615203D01*
X44467931Y-105843394D01*
X44328775Y-106103736D01*
X44243084Y-106386223D01*
X44214149Y-106680000D01*
X44243084Y-106973777D01*
X44328775Y-107256264D01*
X44467931Y-107516606D01*
X44655203Y-107744797D01*
X44883394Y-107932069D01*
X44916940Y-107950000D01*
X44883394Y-107967931D01*
X44655203Y-108155203D01*
X44467931Y-108383394D01*
X44328775Y-108643736D01*
X44243084Y-108926223D01*
X44214149Y-109220000D01*
X44243084Y-109513777D01*
X44328775Y-109796264D01*
X44467931Y-110056606D01*
X44655203Y-110284797D01*
X44883394Y-110472069D01*
X44916940Y-110490000D01*
X44883394Y-110507931D01*
X44655203Y-110695203D01*
X44467931Y-110923394D01*
X44328775Y-111183736D01*
X44243084Y-111466223D01*
X44214149Y-111760000D01*
X44243084Y-112053777D01*
X44328775Y-112336264D01*
X44467931Y-112596606D01*
X44655203Y-112824797D01*
X44883394Y-113012069D01*
X44916940Y-113030000D01*
X44883394Y-113047931D01*
X44655203Y-113235203D01*
X44467931Y-113463394D01*
X44328775Y-113723736D01*
X44243084Y-114006223D01*
X44214149Y-114300000D01*
X44243084Y-114593777D01*
X44328775Y-114876264D01*
X44467931Y-115136606D01*
X44655203Y-115364797D01*
X44663265Y-115371414D01*
X44612220Y-115386898D01*
X44501906Y-115445863D01*
X44405215Y-115525215D01*
X44325863Y-115621906D01*
X44266898Y-115732220D01*
X44230588Y-115851918D01*
X44218328Y-115976400D01*
X44218328Y-117703600D01*
X44230588Y-117828082D01*
X44266898Y-117947780D01*
X44325863Y-118058094D01*
X44405215Y-118154785D01*
X44501906Y-118234137D01*
X44612220Y-118293102D01*
X44731918Y-118329412D01*
X44856400Y-118341672D01*
X46583600Y-118341672D01*
X46708082Y-118329412D01*
X46827780Y-118293102D01*
X46938094Y-118234137D01*
X47034785Y-118154785D01*
X47114137Y-118058094D01*
X47173102Y-117947780D01*
X47188586Y-117896735D01*
X47195203Y-117904797D01*
X47423394Y-118092069D01*
X47683736Y-118231225D01*
X47966223Y-118316916D01*
X48186381Y-118338600D01*
X48333619Y-118338600D01*
X48553777Y-118316916D01*
X48836264Y-118231225D01*
X49096606Y-118092069D01*
X49324797Y-117904797D01*
X49512069Y-117676606D01*
X49651225Y-117416264D01*
X49736916Y-117133777D01*
X49765851Y-116840000D01*
X49736916Y-116546223D01*
X49651225Y-116263736D01*
X49512069Y-116003394D01*
X49324797Y-115775203D01*
X49096606Y-115587931D01*
X49052090Y-115564137D01*
X49148488Y-115506817D01*
X49366854Y-115310293D01*
X49542684Y-115074944D01*
X49669222Y-114809814D01*
X49714958Y-114659026D01*
X49593817Y-114427000D01*
X48387000Y-114427000D01*
X48387000Y-114447000D01*
X48133000Y-114447000D01*
X48133000Y-114427000D01*
X48113000Y-114427000D01*
X48113000Y-114173000D01*
X48133000Y-114173000D01*
X48133000Y-111887000D01*
X48387000Y-111887000D01*
X48387000Y-114173000D01*
X49593817Y-114173000D01*
X49714958Y-113940974D01*
X49669222Y-113790186D01*
X49542684Y-113525056D01*
X49366854Y-113289707D01*
X49148488Y-113093183D01*
X49042230Y-113030000D01*
X49148488Y-112966817D01*
X49366854Y-112770293D01*
X49542684Y-112534944D01*
X49669222Y-112269814D01*
X49714958Y-112119026D01*
X49593817Y-111887000D01*
X48387000Y-111887000D01*
X48133000Y-111887000D01*
X48113000Y-111887000D01*
X48113000Y-111633000D01*
X48133000Y-111633000D01*
X48133000Y-109347000D01*
X48387000Y-109347000D01*
X48387000Y-111633000D01*
X49593817Y-111633000D01*
X49714958Y-111400974D01*
X49669222Y-111250186D01*
X49542684Y-110985056D01*
X49366854Y-110749707D01*
X49148488Y-110553183D01*
X49042230Y-110490000D01*
X49148488Y-110426817D01*
X49366854Y-110230293D01*
X49542684Y-109994944D01*
X49669222Y-109729814D01*
X49714958Y-109579026D01*
X49593817Y-109347000D01*
X48387000Y-109347000D01*
X48133000Y-109347000D01*
X48113000Y-109347000D01*
X48113000Y-109093000D01*
X48133000Y-109093000D01*
X48133000Y-109073000D01*
X48387000Y-109073000D01*
X48387000Y-109093000D01*
X49593817Y-109093000D01*
X49714958Y-108860974D01*
X49669222Y-108710186D01*
X49542684Y-108445056D01*
X49366854Y-108209707D01*
X49148488Y-108013183D01*
X49052090Y-107955863D01*
X49096606Y-107932069D01*
X49324797Y-107744797D01*
X49512069Y-107516606D01*
X49651225Y-107256264D01*
X49736916Y-106973777D01*
X49765851Y-106680000D01*
X49736916Y-106386223D01*
X49651225Y-106103736D01*
X49512069Y-105843394D01*
X49324797Y-105615203D01*
X49096606Y-105427931D01*
X49063060Y-105410000D01*
X49096606Y-105392069D01*
X49324797Y-105204797D01*
X49512069Y-104976606D01*
X49651225Y-104716264D01*
X49736916Y-104433777D01*
X49765851Y-104140000D01*
X49736916Y-103846223D01*
X49651225Y-103563736D01*
X49512069Y-103303394D01*
X49324797Y-103075203D01*
X49096606Y-102887931D01*
X49063060Y-102870000D01*
X49096606Y-102852069D01*
X49324797Y-102664797D01*
X49512069Y-102436606D01*
X49651225Y-102176264D01*
X49736916Y-101893777D01*
X49765851Y-101600000D01*
X49736916Y-101306223D01*
X49651225Y-101023736D01*
X49512069Y-100763394D01*
X49324797Y-100535203D01*
X49096606Y-100347931D01*
X49063060Y-100330000D01*
X49096606Y-100312069D01*
X49324797Y-100124797D01*
X49512069Y-99896606D01*
X49651225Y-99636264D01*
X49736916Y-99353777D01*
X49765851Y-99060000D01*
X49736916Y-98766223D01*
X49651225Y-98483736D01*
X49512069Y-98223394D01*
X49324797Y-97995203D01*
X49096606Y-97807931D01*
X48836264Y-97668775D01*
X48553777Y-97583084D01*
X48333619Y-97561400D01*
X48186381Y-97561400D01*
X47966223Y-97583084D01*
X47683736Y-97668775D01*
X47423394Y-97807931D01*
X47195203Y-97995203D01*
X47007931Y-98223394D01*
X46990000Y-98256940D01*
X46972069Y-98223394D01*
X46784797Y-97995203D01*
X46556606Y-97807931D01*
X46296264Y-97668775D01*
X46013777Y-97583084D01*
X45793619Y-97561400D01*
X45646381Y-97561400D01*
X45426223Y-97583084D01*
X45143736Y-97668775D01*
X44883394Y-97807931D01*
X44655203Y-97995203D01*
X44467931Y-98223394D01*
X44328775Y-98483736D01*
X44243084Y-98766223D01*
X44214149Y-99060000D01*
X38760000Y-99060000D01*
X38760000Y-85090000D01*
X43008057Y-85090000D01*
X43035764Y-85371309D01*
X43117818Y-85641808D01*
X43251068Y-85891101D01*
X43430392Y-86109608D01*
X43648899Y-86288932D01*
X43898192Y-86422182D01*
X44168691Y-86504236D01*
X44379508Y-86525000D01*
X44520492Y-86525000D01*
X44731309Y-86504236D01*
X45001808Y-86422182D01*
X45251101Y-86288932D01*
X45469608Y-86109608D01*
X45648932Y-85891101D01*
X45782182Y-85641808D01*
X45864236Y-85371309D01*
X45891943Y-85090000D01*
X45864236Y-84808691D01*
X45782182Y-84538192D01*
X45648932Y-84288899D01*
X45469608Y-84070392D01*
X45251101Y-83891068D01*
X45001808Y-83757818D01*
X44731309Y-83675764D01*
X44520492Y-83655000D01*
X44379508Y-83655000D01*
X44168691Y-83675764D01*
X43898192Y-83757818D01*
X43648899Y-83891068D01*
X43430392Y-84070392D01*
X43251068Y-84288899D01*
X43117818Y-84538192D01*
X43035764Y-84808691D01*
X43008057Y-85090000D01*
X38760000Y-85090000D01*
X38760000Y-74788665D01*
X43015000Y-74788665D01*
X43015000Y-75071335D01*
X43070147Y-75348574D01*
X43178320Y-75609727D01*
X43335363Y-75844759D01*
X43535241Y-76044637D01*
X43770273Y-76201680D01*
X44031426Y-76309853D01*
X44308665Y-76365000D01*
X44591335Y-76365000D01*
X44868574Y-76309853D01*
X45129727Y-76201680D01*
X45364759Y-76044637D01*
X45564637Y-75844759D01*
X45721680Y-75609727D01*
X45829853Y-75348574D01*
X45885000Y-75071335D01*
X45885000Y-74788665D01*
X45829853Y-74511426D01*
X45721680Y-74250273D01*
X45564637Y-74015241D01*
X45364759Y-73815363D01*
X45129727Y-73658320D01*
X44868574Y-73550147D01*
X44591335Y-73495000D01*
X44308665Y-73495000D01*
X44031426Y-73550147D01*
X43770273Y-73658320D01*
X43535241Y-73815363D01*
X43335363Y-74015241D01*
X43178320Y-74250273D01*
X43070147Y-74511426D01*
X43015000Y-74788665D01*
X38760000Y-74788665D01*
X38760000Y-70018072D01*
X40170000Y-70018072D01*
X40294482Y-70005812D01*
X40414180Y-69969502D01*
X40524494Y-69910537D01*
X40621185Y-69831185D01*
X40700537Y-69734494D01*
X40759502Y-69624180D01*
X40795812Y-69504482D01*
X40808072Y-69380000D01*
X40808072Y-67780000D01*
X40795812Y-67655518D01*
X40759502Y-67535820D01*
X40700537Y-67425506D01*
X40621185Y-67328815D01*
X40524494Y-67249463D01*
X40414180Y-67190498D01*
X40294482Y-67154188D01*
X40276518Y-67152419D01*
X40389608Y-67059608D01*
X40568932Y-66841101D01*
X40702182Y-66591808D01*
X40784236Y-66321309D01*
X40811943Y-66040000D01*
X40784236Y-65758691D01*
X40702182Y-65488192D01*
X40568932Y-65238899D01*
X40389608Y-65020392D01*
X40171101Y-64841068D01*
X40038142Y-64770000D01*
X40171101Y-64698932D01*
X40389608Y-64519608D01*
X40568932Y-64301101D01*
X40702182Y-64051808D01*
X40784236Y-63781309D01*
X40811943Y-63500000D01*
X40784236Y-63218691D01*
X40702182Y-62948192D01*
X40568932Y-62698899D01*
X40389608Y-62480392D01*
X40171101Y-62301068D01*
X40038142Y-62230000D01*
X40171101Y-62158932D01*
X40389608Y-61979608D01*
X40568932Y-61761101D01*
X40702182Y-61511808D01*
X40784236Y-61241309D01*
X40811943Y-60960000D01*
X40784236Y-60678691D01*
X40702182Y-60408192D01*
X40568932Y-60158899D01*
X40389608Y-59940392D01*
X40171101Y-59761068D01*
X40038142Y-59690000D01*
X40171101Y-59618932D01*
X40389608Y-59439608D01*
X40568932Y-59221101D01*
X40688449Y-58997501D01*
X40712521Y-59021573D01*
X41081857Y-59268355D01*
X41492241Y-59438342D01*
X41927902Y-59525000D01*
X42372098Y-59525000D01*
X42807759Y-59438342D01*
X43218143Y-59268355D01*
X43587479Y-59021573D01*
X43690000Y-58919052D01*
X43690000Y-60200000D01*
X41947333Y-60200000D01*
X41910000Y-60196323D01*
X41872667Y-60200000D01*
X41761014Y-60210997D01*
X41617753Y-60254454D01*
X41485724Y-60325026D01*
X41369999Y-60419999D01*
X41275026Y-60535724D01*
X41204454Y-60667753D01*
X41160997Y-60811014D01*
X41146323Y-60960000D01*
X41150001Y-60997343D01*
X41150000Y-67272667D01*
X41146323Y-67310000D01*
X41160997Y-67458986D01*
X41204454Y-67602247D01*
X41275026Y-67734276D01*
X41312551Y-67780000D01*
X41369999Y-67850001D01*
X41485724Y-67944974D01*
X41617753Y-68015546D01*
X41761014Y-68059003D01*
X41910000Y-68073677D01*
X41947333Y-68070000D01*
X48770001Y-68070000D01*
X48770001Y-74761928D01*
X47460000Y-74761928D01*
X47335518Y-74774188D01*
X47215820Y-74810498D01*
X47105506Y-74869463D01*
X47008815Y-74948815D01*
X46929463Y-75045506D01*
X46870498Y-75155820D01*
X46834188Y-75275518D01*
X46821928Y-75400000D01*
X46821928Y-77000000D01*
X46834188Y-77124482D01*
X46870498Y-77244180D01*
X46929463Y-77354494D01*
X47008815Y-77451185D01*
X47105506Y-77530537D01*
X47215820Y-77589502D01*
X47335518Y-77625812D01*
X47460000Y-77638072D01*
X48770000Y-77638072D01*
X48770000Y-82475136D01*
X48541309Y-82405764D01*
X48330492Y-82385000D01*
X48189508Y-82385000D01*
X47978691Y-82405764D01*
X47708192Y-82487818D01*
X47458899Y-82621068D01*
X47240392Y-82800392D01*
X47061068Y-83018899D01*
X46927818Y-83268192D01*
X46845764Y-83538691D01*
X46818057Y-83820000D01*
X46845764Y-84101309D01*
X46927818Y-84371808D01*
X47061068Y-84621101D01*
X47240392Y-84839608D01*
X47458899Y-85018932D01*
X47708192Y-85152182D01*
X47978691Y-85234236D01*
X48189508Y-85255000D01*
X48330492Y-85255000D01*
X48541309Y-85234236D01*
X48811808Y-85152182D01*
X48928142Y-85090000D01*
X50628057Y-85090000D01*
X50655764Y-85371309D01*
X50737818Y-85641808D01*
X50871068Y-85891101D01*
X51050392Y-86109608D01*
X51268899Y-86288932D01*
X51518192Y-86422182D01*
X51788691Y-86504236D01*
X51999508Y-86525000D01*
X52140492Y-86525000D01*
X52351309Y-86504236D01*
X52621808Y-86422182D01*
X52871101Y-86288932D01*
X53089608Y-86109608D01*
X53268932Y-85891101D01*
X53402182Y-85641808D01*
X53484236Y-85371309D01*
X53511943Y-85090000D01*
X53484236Y-84808691D01*
X53402182Y-84538192D01*
X53268932Y-84288899D01*
X53089608Y-84070392D01*
X52871101Y-83891068D01*
X52621808Y-83757818D01*
X52351309Y-83675764D01*
X52140492Y-83655000D01*
X51999508Y-83655000D01*
X51788691Y-83675764D01*
X51518192Y-83757818D01*
X51268899Y-83891068D01*
X51050392Y-84070392D01*
X50871068Y-84288899D01*
X50737818Y-84538192D01*
X50655764Y-84808691D01*
X50628057Y-85090000D01*
X48928142Y-85090000D01*
X49061101Y-85018932D01*
X49279608Y-84839608D01*
X49458932Y-84621101D01*
X49480901Y-84580000D01*
X49492667Y-84580000D01*
X49530000Y-84583677D01*
X49567333Y-84580000D01*
X49678986Y-84569003D01*
X49822247Y-84525546D01*
X49954276Y-84454974D01*
X50070001Y-84360001D01*
X50164974Y-84244276D01*
X50235546Y-84112247D01*
X50279003Y-83968986D01*
X50293677Y-83820000D01*
X50290000Y-83782667D01*
X50290000Y-74788665D01*
X50635000Y-74788665D01*
X50635000Y-75071335D01*
X50690147Y-75348574D01*
X50798320Y-75609727D01*
X50955363Y-75844759D01*
X51155241Y-76044637D01*
X51390273Y-76201680D01*
X51651426Y-76309853D01*
X51928665Y-76365000D01*
X52211335Y-76365000D01*
X52488574Y-76309853D01*
X52749727Y-76201680D01*
X52984759Y-76044637D01*
X53184637Y-75844759D01*
X53341680Y-75609727D01*
X53449853Y-75348574D01*
X53505000Y-75071335D01*
X53505000Y-74788665D01*
X53449853Y-74511426D01*
X53341680Y-74250273D01*
X53184637Y-74015241D01*
X52984759Y-73815363D01*
X52749727Y-73658320D01*
X52488574Y-73550147D01*
X52211335Y-73495000D01*
X51928665Y-73495000D01*
X51651426Y-73550147D01*
X51390273Y-73658320D01*
X51155241Y-73815363D01*
X50955363Y-74015241D01*
X50798320Y-74250273D01*
X50690147Y-74511426D01*
X50635000Y-74788665D01*
X50290000Y-74788665D01*
X50290000Y-67347332D01*
X50293677Y-67310000D01*
X50279003Y-67161014D01*
X50235546Y-67017753D01*
X50164974Y-66885724D01*
X50070001Y-66769999D01*
X49954276Y-66675026D01*
X49822247Y-66604454D01*
X49678986Y-66560997D01*
X49567333Y-66550000D01*
X49530000Y-66546323D01*
X49492667Y-66550000D01*
X42670000Y-66550000D01*
X42670000Y-65670000D01*
X42911928Y-65670000D01*
X42924188Y-65794482D01*
X42960498Y-65914180D01*
X43019463Y-66024494D01*
X43098815Y-66121185D01*
X43195506Y-66200537D01*
X43305820Y-66259502D01*
X43425518Y-66295812D01*
X43550000Y-66308072D01*
X44164250Y-66305000D01*
X44323000Y-66146250D01*
X44323000Y-64897000D01*
X43073750Y-64897000D01*
X42915000Y-65055750D01*
X42911928Y-65670000D01*
X42670000Y-65670000D01*
X42670000Y-63870000D01*
X42911928Y-63870000D01*
X42915000Y-64484250D01*
X43073750Y-64643000D01*
X44323000Y-64643000D01*
X44323000Y-63393750D01*
X44164250Y-63235000D01*
X43550000Y-63231928D01*
X43425518Y-63244188D01*
X43305820Y-63280498D01*
X43195506Y-63339463D01*
X43098815Y-63418815D01*
X43019463Y-63515506D01*
X42960498Y-63625820D01*
X42924188Y-63745518D01*
X42911928Y-63870000D01*
X42670000Y-63870000D01*
X42670000Y-61720000D01*
X44412667Y-61720000D01*
X44450000Y-61723677D01*
X44487333Y-61720000D01*
X44598986Y-61709003D01*
X44742247Y-61665546D01*
X44874276Y-61594974D01*
X44990001Y-61500001D01*
X45084974Y-61384276D01*
X45155546Y-61252247D01*
X45199003Y-61108986D01*
X45213677Y-60960000D01*
X45210000Y-60922667D01*
X45210000Y-53377332D01*
X45213677Y-53340000D01*
X45199003Y-53191014D01*
X45155546Y-53047753D01*
X45084974Y-52915724D01*
X44990001Y-52799999D01*
X44874276Y-52705026D01*
X44742247Y-52634454D01*
X44598986Y-52590997D01*
X44487333Y-52580000D01*
X44450000Y-52576323D01*
X44412667Y-52580000D01*
X42670000Y-52580000D01*
X42670000Y-50430000D01*
X42911928Y-50430000D01*
X42924188Y-50554482D01*
X42960498Y-50674180D01*
X43019463Y-50784494D01*
X43098815Y-50881185D01*
X43195506Y-50960537D01*
X43305820Y-51019502D01*
X43425518Y-51055812D01*
X43550000Y-51068072D01*
X44164250Y-51065000D01*
X44323000Y-50906250D01*
X44323000Y-49657000D01*
X43073750Y-49657000D01*
X42915000Y-49815750D01*
X42911928Y-50430000D01*
X42670000Y-50430000D01*
X42670000Y-48630000D01*
X42911928Y-48630000D01*
X42915000Y-49244250D01*
X43073750Y-49403000D01*
X44323000Y-49403000D01*
X44323000Y-48153750D01*
X44164250Y-47995000D01*
X43550000Y-47991928D01*
X43425518Y-48004188D01*
X43305820Y-48040498D01*
X43195506Y-48099463D01*
X43098815Y-48178815D01*
X43019463Y-48275506D01*
X42960498Y-48385820D01*
X42924188Y-48505518D01*
X42911928Y-48630000D01*
X42670000Y-48630000D01*
X42670000Y-46480000D01*
X44412667Y-46480000D01*
X44450000Y-46483677D01*
X44487333Y-46480000D01*
X44598986Y-46469003D01*
X44742247Y-46425546D01*
X44874276Y-46354974D01*
X44990001Y-46260001D01*
X45084974Y-46144276D01*
X45155546Y-46012247D01*
X45199003Y-45868986D01*
X45213677Y-45720000D01*
X45210000Y-45682667D01*
X45210000Y-36320000D01*
X52032667Y-36320000D01*
X52070000Y-36323677D01*
X52107333Y-36320000D01*
X52218986Y-36309003D01*
X52362247Y-36265546D01*
X52494276Y-36194974D01*
X52610001Y-36100001D01*
X52704974Y-35984276D01*
X52775546Y-35852247D01*
X52819003Y-35708986D01*
X52833677Y-35560000D01*
X52830000Y-35522667D01*
X52830000Y-33780000D01*
X53389099Y-33780000D01*
X53411068Y-33821101D01*
X53411068Y-33821101D01*
G37*
X53411068Y-33821101D02*
X53590392Y-34039608D01*
X53808899Y-34218932D01*
X53941858Y-34290000D01*
X53808899Y-34361068D01*
X53590392Y-34540392D01*
X53411068Y-34758899D01*
X53277818Y-35008192D01*
X53195764Y-35278691D01*
X53168057Y-35560000D01*
X53195764Y-35841309D01*
X53277818Y-36111808D01*
X53411068Y-36361101D01*
X53590392Y-36579608D01*
X53808899Y-36758932D01*
X53941858Y-36830000D01*
X53808899Y-36901068D01*
X53590392Y-37080392D01*
X53411068Y-37298899D01*
X53277818Y-37548192D01*
X53195764Y-37818691D01*
X53168057Y-38100000D01*
X53170598Y-38125796D01*
X52633804Y-37589003D01*
X52610001Y-37559999D01*
X52494276Y-37465026D01*
X52362247Y-37394454D01*
X52218986Y-37350997D01*
X52107333Y-37340000D01*
X52107322Y-37340000D01*
X52070000Y-37336324D01*
X52032678Y-37340000D01*
X47027333Y-37340000D01*
X46990000Y-37336323D01*
X46952667Y-37340000D01*
X46841014Y-37350997D01*
X46697753Y-37394454D01*
X46565724Y-37465026D01*
X46449999Y-37559999D01*
X46431969Y-37581969D01*
X46409999Y-37599999D01*
X46354871Y-37667174D01*
X46315026Y-37715724D01*
X46265835Y-37807753D01*
X46244454Y-37847754D01*
X46200997Y-37991015D01*
X46190000Y-38102668D01*
X46190000Y-38102678D01*
X46186324Y-38140000D01*
X46190000Y-38177322D01*
X46190001Y-48191687D01*
X45971495Y-48337688D01*
X45933880Y-48375303D01*
X45880537Y-48275506D01*
X45801185Y-48178815D01*
X45704494Y-48099463D01*
X45594180Y-48040498D01*
X45474482Y-48004188D01*
X45350000Y-47991928D01*
X44735750Y-47995000D01*
X44577000Y-48153750D01*
X44577000Y-49403000D01*
X44597000Y-49403000D01*
X44597000Y-49657000D01*
X44577000Y-49657000D01*
X44577000Y-50906250D01*
X44735750Y-51065000D01*
X45350000Y-51068072D01*
X45474482Y-51055812D01*
X45594180Y-51019502D01*
X45704494Y-50960537D01*
X45801185Y-50881185D01*
X45880537Y-50784494D01*
X45933880Y-50684697D01*
X45971495Y-50722312D01*
X46222905Y-50890299D01*
X46502257Y-51006011D01*
X46798816Y-51065000D01*
X47101184Y-51065000D01*
X47397743Y-51006011D01*
X47464999Y-50978152D01*
X47464999Y-51790199D01*
X46438998Y-52816201D01*
X46410000Y-52839999D01*
X46386202Y-52868997D01*
X46386201Y-52868998D01*
X46315026Y-52955724D01*
X46244454Y-53087754D01*
X46200998Y-53231015D01*
X46186324Y-53380000D01*
X46190001Y-53417332D01*
X46190000Y-63431687D01*
X45971495Y-63577688D01*
X45933880Y-63615303D01*
X45880537Y-63515506D01*
X45801185Y-63418815D01*
X45704494Y-63339463D01*
X45594180Y-63280498D01*
X45474482Y-63244188D01*
X45350000Y-63231928D01*
X44735750Y-63235000D01*
X44577000Y-63393750D01*
X44577000Y-64643000D01*
X44597000Y-64643000D01*
X44597000Y-64897000D01*
X44577000Y-64897000D01*
X44577000Y-66146250D01*
X44735750Y-66305000D01*
X45350000Y-66308072D01*
X45474482Y-66295812D01*
X45594180Y-66259502D01*
X45704494Y-66200537D01*
X45801185Y-66121185D01*
X45880537Y-66024494D01*
X45933880Y-65924697D01*
X45971495Y-65962312D01*
X46222905Y-66130299D01*
X46502257Y-66246011D01*
X46798816Y-66305000D01*
X47101184Y-66305000D01*
X47397743Y-66246011D01*
X47677095Y-66130299D01*
X47928505Y-65962312D01*
X48142312Y-65748505D01*
X48200000Y-65662169D01*
X48257688Y-65748505D01*
X48471495Y-65962312D01*
X48722905Y-66130299D01*
X49002257Y-66246011D01*
X49298816Y-66305000D01*
X49601184Y-66305000D01*
X49897743Y-66246011D01*
X50177095Y-66130299D01*
X50428505Y-65962312D01*
X50642312Y-65748505D01*
X50810299Y-65497095D01*
X50926011Y-65217743D01*
X50985000Y-64921184D01*
X50985000Y-64618816D01*
X50926011Y-64322257D01*
X50810299Y-64042905D01*
X50642312Y-63791495D01*
X50428505Y-63577688D01*
X50210000Y-63431687D01*
X50210000Y-61720000D01*
X53389099Y-61720000D01*
X53411068Y-61761101D01*
X53590392Y-61979608D01*
X53808899Y-62158932D01*
X53941858Y-62230000D01*
X53808899Y-62301068D01*
X53590392Y-62480392D01*
X53411068Y-62698899D01*
X53277818Y-62948192D01*
X53195764Y-63218691D01*
X53168057Y-63500000D01*
X53195764Y-63781309D01*
X53277818Y-64051808D01*
X53411068Y-64301101D01*
X53590392Y-64519608D01*
X53808899Y-64698932D01*
X53946682Y-64772579D01*
X53754869Y-64887615D01*
X53546481Y-65076586D01*
X53378963Y-65302580D01*
X53258754Y-65556913D01*
X53218096Y-65690961D01*
X53340085Y-65913000D01*
X54483000Y-65913000D01*
X54483000Y-65893000D01*
X54737000Y-65893000D01*
X54737000Y-65913000D01*
X54757000Y-65913000D01*
X54757000Y-66167000D01*
X54737000Y-66167000D01*
X54737000Y-66187000D01*
X54483000Y-66187000D01*
X54483000Y-66167000D01*
X53340085Y-66167000D01*
X53218096Y-66389039D01*
X53258754Y-66523087D01*
X53378963Y-66777420D01*
X53546481Y-67003414D01*
X53754869Y-67192385D01*
X53946682Y-67307421D01*
X53808899Y-67381068D01*
X53590392Y-67560392D01*
X53411068Y-67778899D01*
X53277818Y-68028192D01*
X53195764Y-68298691D01*
X53168057Y-68580000D01*
X53195764Y-68861309D01*
X53277818Y-69131808D01*
X53411068Y-69381101D01*
X53590392Y-69599608D01*
X53808899Y-69778932D01*
X54058192Y-69912182D01*
X54328691Y-69994236D01*
X54539508Y-70015000D01*
X54680492Y-70015000D01*
X54891309Y-69994236D01*
X55161808Y-69912182D01*
X55220001Y-69881077D01*
X55220000Y-137770000D01*
X38760000Y-137770000D01*
X38760000Y-133045000D01*
X39086928Y-133045000D01*
X39099188Y-133169482D01*
X39135498Y-133289180D01*
X39194463Y-133399494D01*
X39273815Y-133496185D01*
X39370506Y-133575537D01*
X39480820Y-133634502D01*
X39600518Y-133670812D01*
X39725000Y-133683072D01*
X40354250Y-133680000D01*
X40513000Y-133521250D01*
X40513000Y-132207000D01*
X39248750Y-132207000D01*
X39090000Y-132365750D01*
X39086928Y-133045000D01*
X38760000Y-133045000D01*
X38760000Y-131115000D01*
X39086928Y-131115000D01*
X39090000Y-131794250D01*
X39248750Y-131953000D01*
X40513000Y-131953000D01*
X40513000Y-130638750D01*
X40767000Y-130638750D01*
X40767000Y-131953000D01*
X40787000Y-131953000D01*
X40787000Y-132207000D01*
X40767000Y-132207000D01*
X40767000Y-133521250D01*
X40925750Y-133680000D01*
X41555000Y-133683072D01*
X41679482Y-133670812D01*
X41799180Y-133634502D01*
X41909494Y-133575537D01*
X42006185Y-133496185D01*
X42085537Y-133399494D01*
X42144502Y-133289180D01*
X42180812Y-133169482D01*
X42193072Y-133045000D01*
X42191895Y-132784860D01*
X42233479Y-132885252D01*
X42419523Y-133163687D01*
X42656313Y-133400477D01*
X42934748Y-133586521D01*
X43244128Y-133714670D01*
X43572565Y-133780000D01*
X43907435Y-133780000D01*
X44235872Y-133714670D01*
X44545252Y-133586521D01*
X44823687Y-133400477D01*
X45060477Y-133163687D01*
X45246521Y-132885252D01*
X45374670Y-132575872D01*
X45440000Y-132247435D01*
X45440000Y-131912565D01*
X50340000Y-131912565D01*
X50340000Y-132247435D01*
X50405330Y-132575872D01*
X50533479Y-132885252D01*
X50719523Y-133163687D01*
X50956313Y-133400477D01*
X51234748Y-133586521D01*
X51544128Y-133714670D01*
X51872565Y-133780000D01*
X52207435Y-133780000D01*
X52535872Y-133714670D01*
X52845252Y-133586521D01*
X53123687Y-133400477D01*
X53360477Y-133163687D01*
X53546521Y-132885252D01*
X53674670Y-132575872D01*
X53740000Y-132247435D01*
X53740000Y-131912565D01*
X53674670Y-131584128D01*
X53546521Y-131274748D01*
X53360477Y-130996313D01*
X53123687Y-130759523D01*
X52845252Y-130573479D01*
X52535872Y-130445330D01*
X52207435Y-130380000D01*
X51872565Y-130380000D01*
X51544128Y-130445330D01*
X51234748Y-130573479D01*
X50956313Y-130759523D01*
X50719523Y-130996313D01*
X50533479Y-131274748D01*
X50405330Y-131584128D01*
X50340000Y-131912565D01*
X45440000Y-131912565D01*
X45374670Y-131584128D01*
X45246521Y-131274748D01*
X45060477Y-130996313D01*
X44823687Y-130759523D01*
X44545252Y-130573479D01*
X44235872Y-130445330D01*
X43907435Y-130380000D01*
X43572565Y-130380000D01*
X43244128Y-130445330D01*
X42934748Y-130573479D01*
X42656313Y-130759523D01*
X42419523Y-130996313D01*
X42233479Y-131274748D01*
X42191895Y-131375140D01*
X42193072Y-131115000D01*
X42180812Y-130990518D01*
X42144502Y-130870820D01*
X42085537Y-130760506D01*
X42006185Y-130663815D01*
X41909494Y-130584463D01*
X41799180Y-130525498D01*
X41679482Y-130489188D01*
X41555000Y-130476928D01*
X40925750Y-130480000D01*
X40767000Y-130638750D01*
X40513000Y-130638750D01*
X40354250Y-130480000D01*
X39725000Y-130476928D01*
X39600518Y-130489188D01*
X39480820Y-130525498D01*
X39370506Y-130584463D01*
X39273815Y-130663815D01*
X39194463Y-130760506D01*
X39135498Y-130870820D01*
X39099188Y-130990518D01*
X39086928Y-131115000D01*
X38760000Y-131115000D01*
X38760000Y-99060000D01*
X44214149Y-99060000D01*
X44243084Y-99353777D01*
X44328775Y-99636264D01*
X44467931Y-99896606D01*
X44655203Y-100124797D01*
X44883394Y-100312069D01*
X44916940Y-100330000D01*
X44883394Y-100347931D01*
X44655203Y-100535203D01*
X44467931Y-100763394D01*
X44328775Y-101023736D01*
X44243084Y-101306223D01*
X44214149Y-101600000D01*
X44243084Y-101893777D01*
X44328775Y-102176264D01*
X44467931Y-102436606D01*
X44655203Y-102664797D01*
X44883394Y-102852069D01*
X44916940Y-102870000D01*
X44883394Y-102887931D01*
X44655203Y-103075203D01*
X44467931Y-103303394D01*
X44328775Y-103563736D01*
X44243084Y-103846223D01*
X44214149Y-104140000D01*
X44243084Y-104433777D01*
X44328775Y-104716264D01*
X44467931Y-104976606D01*
X44655203Y-105204797D01*
X44883394Y-105392069D01*
X44916940Y-105410000D01*
X44883394Y-105427931D01*
X44655203Y-105615203D01*
X44467931Y-105843394D01*
X44328775Y-106103736D01*
X44243084Y-106386223D01*
X44214149Y-106680000D01*
X44243084Y-106973777D01*
X44328775Y-107256264D01*
X44467931Y-107516606D01*
X44655203Y-107744797D01*
X44883394Y-107932069D01*
X44916940Y-107950000D01*
X44883394Y-107967931D01*
X44655203Y-108155203D01*
X44467931Y-108383394D01*
X44328775Y-108643736D01*
X44243084Y-108926223D01*
X44214149Y-109220000D01*
X44243084Y-109513777D01*
X44328775Y-109796264D01*
X44467931Y-110056606D01*
X44655203Y-110284797D01*
X44883394Y-110472069D01*
X44916940Y-110490000D01*
X44883394Y-110507931D01*
X44655203Y-110695203D01*
X44467931Y-110923394D01*
X44328775Y-111183736D01*
X44243084Y-111466223D01*
X44214149Y-111760000D01*
X44243084Y-112053777D01*
X44328775Y-112336264D01*
X44467931Y-112596606D01*
X44655203Y-112824797D01*
X44883394Y-113012069D01*
X44916940Y-113030000D01*
X44883394Y-113047931D01*
X44655203Y-113235203D01*
X44467931Y-113463394D01*
X44328775Y-113723736D01*
X44243084Y-114006223D01*
X44214149Y-114300000D01*
X44243084Y-114593777D01*
X44328775Y-114876264D01*
X44467931Y-115136606D01*
X44655203Y-115364797D01*
X44663265Y-115371414D01*
X44612220Y-115386898D01*
X44501906Y-115445863D01*
X44405215Y-115525215D01*
X44325863Y-115621906D01*
X44266898Y-115732220D01*
X44230588Y-115851918D01*
X44218328Y-115976400D01*
X44218328Y-117703600D01*
X44230588Y-117828082D01*
X44266898Y-117947780D01*
X44325863Y-118058094D01*
X44405215Y-118154785D01*
X44501906Y-118234137D01*
X44612220Y-118293102D01*
X44731918Y-118329412D01*
X44856400Y-118341672D01*
X46583600Y-118341672D01*
X46708082Y-118329412D01*
X46827780Y-118293102D01*
X46938094Y-118234137D01*
X47034785Y-118154785D01*
X47114137Y-118058094D01*
X47173102Y-117947780D01*
X47188586Y-117896735D01*
X47195203Y-117904797D01*
X47423394Y-118092069D01*
X47683736Y-118231225D01*
X47966223Y-118316916D01*
X48186381Y-118338600D01*
X48333619Y-118338600D01*
X48553777Y-118316916D01*
X48836264Y-118231225D01*
X49096606Y-118092069D01*
X49324797Y-117904797D01*
X49512069Y-117676606D01*
X49651225Y-117416264D01*
X49736916Y-117133777D01*
X49765851Y-116840000D01*
X49736916Y-116546223D01*
X49651225Y-116263736D01*
X49512069Y-116003394D01*
X49324797Y-115775203D01*
X49096606Y-115587931D01*
X49052090Y-115564137D01*
X49148488Y-115506817D01*
X49366854Y-115310293D01*
X49542684Y-115074944D01*
X49669222Y-114809814D01*
X49714958Y-114659026D01*
X49593817Y-114427000D01*
X48387000Y-114427000D01*
X48387000Y-114447000D01*
X48133000Y-114447000D01*
X48133000Y-114427000D01*
X48113000Y-114427000D01*
X48113000Y-114173000D01*
X48133000Y-114173000D01*
X48133000Y-111887000D01*
X48387000Y-111887000D01*
X48387000Y-114173000D01*
X49593817Y-114173000D01*
X49714958Y-113940974D01*
X49669222Y-113790186D01*
X49542684Y-113525056D01*
X49366854Y-113289707D01*
X49148488Y-113093183D01*
X49042230Y-113030000D01*
X49148488Y-112966817D01*
X49366854Y-112770293D01*
X49542684Y-112534944D01*
X49669222Y-112269814D01*
X49714958Y-112119026D01*
X49593817Y-111887000D01*
X48387000Y-111887000D01*
X48133000Y-111887000D01*
X48113000Y-111887000D01*
X48113000Y-111633000D01*
X48133000Y-111633000D01*
X48133000Y-109347000D01*
X48387000Y-109347000D01*
X48387000Y-111633000D01*
X49593817Y-111633000D01*
X49714958Y-111400974D01*
X49669222Y-111250186D01*
X49542684Y-110985056D01*
X49366854Y-110749707D01*
X49148488Y-110553183D01*
X49042230Y-110490000D01*
X49148488Y-110426817D01*
X49366854Y-110230293D01*
X49542684Y-109994944D01*
X49669222Y-109729814D01*
X49714958Y-109579026D01*
X49593817Y-109347000D01*
X48387000Y-109347000D01*
X48133000Y-109347000D01*
X48113000Y-109347000D01*
X48113000Y-109093000D01*
X48133000Y-109093000D01*
X48133000Y-109073000D01*
X48387000Y-109073000D01*
X48387000Y-109093000D01*
X49593817Y-109093000D01*
X49714958Y-108860974D01*
X49669222Y-108710186D01*
X49542684Y-108445056D01*
X49366854Y-108209707D01*
X49148488Y-108013183D01*
X49052090Y-107955863D01*
X49096606Y-107932069D01*
X49324797Y-107744797D01*
X49512069Y-107516606D01*
X49651225Y-107256264D01*
X49736916Y-106973777D01*
X49765851Y-106680000D01*
X49736916Y-106386223D01*
X49651225Y-106103736D01*
X49512069Y-105843394D01*
X49324797Y-105615203D01*
X49096606Y-105427931D01*
X49063060Y-105410000D01*
X49096606Y-105392069D01*
X49324797Y-105204797D01*
X49512069Y-104976606D01*
X49651225Y-104716264D01*
X49736916Y-104433777D01*
X49765851Y-104140000D01*
X49736916Y-103846223D01*
X49651225Y-103563736D01*
X49512069Y-103303394D01*
X49324797Y-103075203D01*
X49096606Y-102887931D01*
X49063060Y-102870000D01*
X49096606Y-102852069D01*
X49324797Y-102664797D01*
X49512069Y-102436606D01*
X49651225Y-102176264D01*
X49736916Y-101893777D01*
X49765851Y-101600000D01*
X49736916Y-101306223D01*
X49651225Y-101023736D01*
X49512069Y-100763394D01*
X49324797Y-100535203D01*
X49096606Y-100347931D01*
X49063060Y-100330000D01*
X49096606Y-100312069D01*
X49324797Y-100124797D01*
X49512069Y-99896606D01*
X49651225Y-99636264D01*
X49736916Y-99353777D01*
X49765851Y-99060000D01*
X49736916Y-98766223D01*
X49651225Y-98483736D01*
X49512069Y-98223394D01*
X49324797Y-97995203D01*
X49096606Y-97807931D01*
X48836264Y-97668775D01*
X48553777Y-97583084D01*
X48333619Y-97561400D01*
X48186381Y-97561400D01*
X47966223Y-97583084D01*
X47683736Y-97668775D01*
X47423394Y-97807931D01*
X47195203Y-97995203D01*
X47007931Y-98223394D01*
X46990000Y-98256940D01*
X46972069Y-98223394D01*
X46784797Y-97995203D01*
X46556606Y-97807931D01*
X46296264Y-97668775D01*
X46013777Y-97583084D01*
X45793619Y-97561400D01*
X45646381Y-97561400D01*
X45426223Y-97583084D01*
X45143736Y-97668775D01*
X44883394Y-97807931D01*
X44655203Y-97995203D01*
X44467931Y-98223394D01*
X44328775Y-98483736D01*
X44243084Y-98766223D01*
X44214149Y-99060000D01*
X38760000Y-99060000D01*
X38760000Y-85090000D01*
X43008057Y-85090000D01*
X43035764Y-85371309D01*
X43117818Y-85641808D01*
X43251068Y-85891101D01*
X43430392Y-86109608D01*
X43648899Y-86288932D01*
X43898192Y-86422182D01*
X44168691Y-86504236D01*
X44379508Y-86525000D01*
X44520492Y-86525000D01*
X44731309Y-86504236D01*
X45001808Y-86422182D01*
X45251101Y-86288932D01*
X45469608Y-86109608D01*
X45648932Y-85891101D01*
X45782182Y-85641808D01*
X45864236Y-85371309D01*
X45891943Y-85090000D01*
X45864236Y-84808691D01*
X45782182Y-84538192D01*
X45648932Y-84288899D01*
X45469608Y-84070392D01*
X45251101Y-83891068D01*
X45001808Y-83757818D01*
X44731309Y-83675764D01*
X44520492Y-83655000D01*
X44379508Y-83655000D01*
X44168691Y-83675764D01*
X43898192Y-83757818D01*
X43648899Y-83891068D01*
X43430392Y-84070392D01*
X43251068Y-84288899D01*
X43117818Y-84538192D01*
X43035764Y-84808691D01*
X43008057Y-85090000D01*
X38760000Y-85090000D01*
X38760000Y-74788665D01*
X43015000Y-74788665D01*
X43015000Y-75071335D01*
X43070147Y-75348574D01*
X43178320Y-75609727D01*
X43335363Y-75844759D01*
X43535241Y-76044637D01*
X43770273Y-76201680D01*
X44031426Y-76309853D01*
X44308665Y-76365000D01*
X44591335Y-76365000D01*
X44868574Y-76309853D01*
X45129727Y-76201680D01*
X45364759Y-76044637D01*
X45564637Y-75844759D01*
X45721680Y-75609727D01*
X45829853Y-75348574D01*
X45885000Y-75071335D01*
X45885000Y-74788665D01*
X45829853Y-74511426D01*
X45721680Y-74250273D01*
X45564637Y-74015241D01*
X45364759Y-73815363D01*
X45129727Y-73658320D01*
X44868574Y-73550147D01*
X44591335Y-73495000D01*
X44308665Y-73495000D01*
X44031426Y-73550147D01*
X43770273Y-73658320D01*
X43535241Y-73815363D01*
X43335363Y-74015241D01*
X43178320Y-74250273D01*
X43070147Y-74511426D01*
X43015000Y-74788665D01*
X38760000Y-74788665D01*
X38760000Y-70018072D01*
X40170000Y-70018072D01*
X40294482Y-70005812D01*
X40414180Y-69969502D01*
X40524494Y-69910537D01*
X40621185Y-69831185D01*
X40700537Y-69734494D01*
X40759502Y-69624180D01*
X40795812Y-69504482D01*
X40808072Y-69380000D01*
X40808072Y-67780000D01*
X40795812Y-67655518D01*
X40759502Y-67535820D01*
X40700537Y-67425506D01*
X40621185Y-67328815D01*
X40524494Y-67249463D01*
X40414180Y-67190498D01*
X40294482Y-67154188D01*
X40276518Y-67152419D01*
X40389608Y-67059608D01*
X40568932Y-66841101D01*
X40702182Y-66591808D01*
X40784236Y-66321309D01*
X40811943Y-66040000D01*
X40784236Y-65758691D01*
X40702182Y-65488192D01*
X40568932Y-65238899D01*
X40389608Y-65020392D01*
X40171101Y-64841068D01*
X40038142Y-64770000D01*
X40171101Y-64698932D01*
X40389608Y-64519608D01*
X40568932Y-64301101D01*
X40702182Y-64051808D01*
X40784236Y-63781309D01*
X40811943Y-63500000D01*
X40784236Y-63218691D01*
X40702182Y-62948192D01*
X40568932Y-62698899D01*
X40389608Y-62480392D01*
X40171101Y-62301068D01*
X40038142Y-62230000D01*
X40171101Y-62158932D01*
X40389608Y-61979608D01*
X40568932Y-61761101D01*
X40702182Y-61511808D01*
X40784236Y-61241309D01*
X40811943Y-60960000D01*
X40784236Y-60678691D01*
X40702182Y-60408192D01*
X40568932Y-60158899D01*
X40389608Y-59940392D01*
X40171101Y-59761068D01*
X40038142Y-59690000D01*
X40171101Y-59618932D01*
X40389608Y-59439608D01*
X40568932Y-59221101D01*
X40688449Y-58997501D01*
X40712521Y-59021573D01*
X41081857Y-59268355D01*
X41492241Y-59438342D01*
X41927902Y-59525000D01*
X42372098Y-59525000D01*
X42807759Y-59438342D01*
X43218143Y-59268355D01*
X43587479Y-59021573D01*
X43690000Y-58919052D01*
X43690000Y-60200000D01*
X41947333Y-60200000D01*
X41910000Y-60196323D01*
X41872667Y-60200000D01*
X41761014Y-60210997D01*
X41617753Y-60254454D01*
X41485724Y-60325026D01*
X41369999Y-60419999D01*
X41275026Y-60535724D01*
X41204454Y-60667753D01*
X41160997Y-60811014D01*
X41146323Y-60960000D01*
X41150001Y-60997343D01*
X41150000Y-67272667D01*
X41146323Y-67310000D01*
X41160997Y-67458986D01*
X41204454Y-67602247D01*
X41275026Y-67734276D01*
X41312551Y-67780000D01*
X41369999Y-67850001D01*
X41485724Y-67944974D01*
X41617753Y-68015546D01*
X41761014Y-68059003D01*
X41910000Y-68073677D01*
X41947333Y-68070000D01*
X48770001Y-68070000D01*
X48770001Y-74761928D01*
X47460000Y-74761928D01*
X47335518Y-74774188D01*
X47215820Y-74810498D01*
X47105506Y-74869463D01*
X47008815Y-74948815D01*
X46929463Y-75045506D01*
X46870498Y-75155820D01*
X46834188Y-75275518D01*
X46821928Y-75400000D01*
X46821928Y-77000000D01*
X46834188Y-77124482D01*
X46870498Y-77244180D01*
X46929463Y-77354494D01*
X47008815Y-77451185D01*
X47105506Y-77530537D01*
X47215820Y-77589502D01*
X47335518Y-77625812D01*
X47460000Y-77638072D01*
X48770000Y-77638072D01*
X48770000Y-82475136D01*
X48541309Y-82405764D01*
X48330492Y-82385000D01*
X48189508Y-82385000D01*
X47978691Y-82405764D01*
X47708192Y-82487818D01*
X47458899Y-82621068D01*
X47240392Y-82800392D01*
X47061068Y-83018899D01*
X46927818Y-83268192D01*
X46845764Y-83538691D01*
X46818057Y-83820000D01*
X46845764Y-84101309D01*
X46927818Y-84371808D01*
X47061068Y-84621101D01*
X47240392Y-84839608D01*
X47458899Y-85018932D01*
X47708192Y-85152182D01*
X47978691Y-85234236D01*
X48189508Y-85255000D01*
X48330492Y-85255000D01*
X48541309Y-85234236D01*
X48811808Y-85152182D01*
X48928142Y-85090000D01*
X50628057Y-85090000D01*
X50655764Y-85371309D01*
X50737818Y-85641808D01*
X50871068Y-85891101D01*
X51050392Y-86109608D01*
X51268899Y-86288932D01*
X51518192Y-86422182D01*
X51788691Y-86504236D01*
X51999508Y-86525000D01*
X52140492Y-86525000D01*
X52351309Y-86504236D01*
X52621808Y-86422182D01*
X52871101Y-86288932D01*
X53089608Y-86109608D01*
X53268932Y-85891101D01*
X53402182Y-85641808D01*
X53484236Y-85371309D01*
X53511943Y-85090000D01*
X53484236Y-84808691D01*
X53402182Y-84538192D01*
X53268932Y-84288899D01*
X53089608Y-84070392D01*
X52871101Y-83891068D01*
X52621808Y-83757818D01*
X52351309Y-83675764D01*
X52140492Y-83655000D01*
X51999508Y-83655000D01*
X51788691Y-83675764D01*
X51518192Y-83757818D01*
X51268899Y-83891068D01*
X51050392Y-84070392D01*
X50871068Y-84288899D01*
X50737818Y-84538192D01*
X50655764Y-84808691D01*
X50628057Y-85090000D01*
X48928142Y-85090000D01*
X49061101Y-85018932D01*
X49279608Y-84839608D01*
X49458932Y-84621101D01*
X49480901Y-84580000D01*
X49492667Y-84580000D01*
X49530000Y-84583677D01*
X49567333Y-84580000D01*
X49678986Y-84569003D01*
X49822247Y-84525546D01*
X49954276Y-84454974D01*
X50070001Y-84360001D01*
X50164974Y-84244276D01*
X50235546Y-84112247D01*
X50279003Y-83968986D01*
X50293677Y-83820000D01*
X50290000Y-83782667D01*
X50290000Y-74788665D01*
X50635000Y-74788665D01*
X50635000Y-75071335D01*
X50690147Y-75348574D01*
X50798320Y-75609727D01*
X50955363Y-75844759D01*
X51155241Y-76044637D01*
X51390273Y-76201680D01*
X51651426Y-76309853D01*
X51928665Y-76365000D01*
X52211335Y-76365000D01*
X52488574Y-76309853D01*
X52749727Y-76201680D01*
X52984759Y-76044637D01*
X53184637Y-75844759D01*
X53341680Y-75609727D01*
X53449853Y-75348574D01*
X53505000Y-75071335D01*
X53505000Y-74788665D01*
X53449853Y-74511426D01*
X53341680Y-74250273D01*
X53184637Y-74015241D01*
X52984759Y-73815363D01*
X52749727Y-73658320D01*
X52488574Y-73550147D01*
X52211335Y-73495000D01*
X51928665Y-73495000D01*
X51651426Y-73550147D01*
X51390273Y-73658320D01*
X51155241Y-73815363D01*
X50955363Y-74015241D01*
X50798320Y-74250273D01*
X50690147Y-74511426D01*
X50635000Y-74788665D01*
X50290000Y-74788665D01*
X50290000Y-67347332D01*
X50293677Y-67310000D01*
X50279003Y-67161014D01*
X50235546Y-67017753D01*
X50164974Y-66885724D01*
X50070001Y-66769999D01*
X49954276Y-66675026D01*
X49822247Y-66604454D01*
X49678986Y-66560997D01*
X49567333Y-66550000D01*
X49530000Y-66546323D01*
X49492667Y-66550000D01*
X42670000Y-66550000D01*
X42670000Y-65670000D01*
X42911928Y-65670000D01*
X42924188Y-65794482D01*
X42960498Y-65914180D01*
X43019463Y-66024494D01*
X43098815Y-66121185D01*
X43195506Y-66200537D01*
X43305820Y-66259502D01*
X43425518Y-66295812D01*
X43550000Y-66308072D01*
X44164250Y-66305000D01*
X44323000Y-66146250D01*
X44323000Y-64897000D01*
X43073750Y-64897000D01*
X42915000Y-65055750D01*
X42911928Y-65670000D01*
X42670000Y-65670000D01*
X42670000Y-63870000D01*
X42911928Y-63870000D01*
X42915000Y-64484250D01*
X43073750Y-64643000D01*
X44323000Y-64643000D01*
X44323000Y-63393750D01*
X44164250Y-63235000D01*
X43550000Y-63231928D01*
X43425518Y-63244188D01*
X43305820Y-63280498D01*
X43195506Y-63339463D01*
X43098815Y-63418815D01*
X43019463Y-63515506D01*
X42960498Y-63625820D01*
X42924188Y-63745518D01*
X42911928Y-63870000D01*
X42670000Y-63870000D01*
X42670000Y-61720000D01*
X44412667Y-61720000D01*
X44450000Y-61723677D01*
X44487333Y-61720000D01*
X44598986Y-61709003D01*
X44742247Y-61665546D01*
X44874276Y-61594974D01*
X44990001Y-61500001D01*
X45084974Y-61384276D01*
X45155546Y-61252247D01*
X45199003Y-61108986D01*
X45213677Y-60960000D01*
X45210000Y-60922667D01*
X45210000Y-53377332D01*
X45213677Y-53340000D01*
X45199003Y-53191014D01*
X45155546Y-53047753D01*
X45084974Y-52915724D01*
X44990001Y-52799999D01*
X44874276Y-52705026D01*
X44742247Y-52634454D01*
X44598986Y-52590997D01*
X44487333Y-52580000D01*
X44450000Y-52576323D01*
X44412667Y-52580000D01*
X42670000Y-52580000D01*
X42670000Y-50430000D01*
X42911928Y-50430000D01*
X42924188Y-50554482D01*
X42960498Y-50674180D01*
X43019463Y-50784494D01*
X43098815Y-50881185D01*
X43195506Y-50960537D01*
X43305820Y-51019502D01*
X43425518Y-51055812D01*
X43550000Y-51068072D01*
X44164250Y-51065000D01*
X44323000Y-50906250D01*
X44323000Y-49657000D01*
X43073750Y-49657000D01*
X42915000Y-49815750D01*
X42911928Y-50430000D01*
X42670000Y-50430000D01*
X42670000Y-48630000D01*
X42911928Y-48630000D01*
X42915000Y-49244250D01*
X43073750Y-49403000D01*
X44323000Y-49403000D01*
X44323000Y-48153750D01*
X44164250Y-47995000D01*
X43550000Y-47991928D01*
X43425518Y-48004188D01*
X43305820Y-48040498D01*
X43195506Y-48099463D01*
X43098815Y-48178815D01*
X43019463Y-48275506D01*
X42960498Y-48385820D01*
X42924188Y-48505518D01*
X42911928Y-48630000D01*
X42670000Y-48630000D01*
X42670000Y-46480000D01*
X44412667Y-46480000D01*
X44450000Y-46483677D01*
X44487333Y-46480000D01*
X44598986Y-46469003D01*
X44742247Y-46425546D01*
X44874276Y-46354974D01*
X44990001Y-46260001D01*
X45084974Y-46144276D01*
X45155546Y-46012247D01*
X45199003Y-45868986D01*
X45213677Y-45720000D01*
X45210000Y-45682667D01*
X45210000Y-36320000D01*
X52032667Y-36320000D01*
X52070000Y-36323677D01*
X52107333Y-36320000D01*
X52218986Y-36309003D01*
X52362247Y-36265546D01*
X52494276Y-36194974D01*
X52610001Y-36100001D01*
X52704974Y-35984276D01*
X52775546Y-35852247D01*
X52819003Y-35708986D01*
X52833677Y-35560000D01*
X52830000Y-35522667D01*
X52830000Y-33780000D01*
X53389099Y-33780000D01*
X53411068Y-33821101D01*
G36*
X55220001Y-31718923D02*
G01*
X55161808Y-31687818D01*
X54891309Y-31605764D01*
X54680492Y-31585000D01*
X54539508Y-31585000D01*
X54328691Y-31605764D01*
X54058192Y-31687818D01*
X53808899Y-31821068D01*
X53590392Y-32000392D01*
X53411068Y-32218899D01*
X53389099Y-32260000D01*
X52107333Y-32260000D01*
X52070000Y-32256323D01*
X52032667Y-32260000D01*
X51921014Y-32270997D01*
X51777753Y-32314454D01*
X51645724Y-32385026D01*
X51529999Y-32479999D01*
X51435026Y-32595724D01*
X51364454Y-32727753D01*
X51320997Y-32871014D01*
X51306323Y-33020000D01*
X51310001Y-33057343D01*
X51310000Y-34800000D01*
X44487333Y-34800000D01*
X44450000Y-34796323D01*
X44412667Y-34800000D01*
X44301014Y-34810997D01*
X44157753Y-34854454D01*
X44025724Y-34925026D01*
X43909999Y-35019999D01*
X43815026Y-35135724D01*
X43744454Y-35267753D01*
X43700997Y-35411014D01*
X43686323Y-35560000D01*
X43690001Y-35597343D01*
X43690001Y-40380949D01*
X43587479Y-40278427D01*
X43218143Y-40031645D01*
X42807759Y-39861658D01*
X42372098Y-39775000D01*
X41927902Y-39775000D01*
X41492241Y-39861658D01*
X41081857Y-40031645D01*
X40751906Y-40252111D01*
X40702182Y-40088192D01*
X40568932Y-39838899D01*
X40389608Y-39620392D01*
X40171101Y-39441068D01*
X40038142Y-39370000D01*
X40171101Y-39298932D01*
X40389608Y-39119608D01*
X40568932Y-38901101D01*
X40702182Y-38651808D01*
X40784236Y-38381309D01*
X40811943Y-38100000D01*
X40784236Y-37818691D01*
X40702182Y-37548192D01*
X40568932Y-37298899D01*
X40389608Y-37080392D01*
X40171101Y-36901068D01*
X40038142Y-36830000D01*
X40171101Y-36758932D01*
X40389608Y-36579608D01*
X40568932Y-36361101D01*
X40702182Y-36111808D01*
X40784236Y-35841309D01*
X40811943Y-35560000D01*
X40784236Y-35278691D01*
X40702182Y-35008192D01*
X40568932Y-34758899D01*
X40389608Y-34540392D01*
X40171101Y-34361068D01*
X40038142Y-34290000D01*
X40171101Y-34218932D01*
X40389608Y-34039608D01*
X40487767Y-33920000D01*
X45451928Y-33920000D01*
X45464188Y-34044482D01*
X45500498Y-34164180D01*
X45559463Y-34274494D01*
X45638815Y-34371185D01*
X45735506Y-34450537D01*
X45845820Y-34509502D01*
X45965518Y-34545812D01*
X46090000Y-34558072D01*
X46704250Y-34555000D01*
X46863000Y-34396250D01*
X46863000Y-33147000D01*
X47117000Y-33147000D01*
X47117000Y-34396250D01*
X47275750Y-34555000D01*
X47890000Y-34558072D01*
X48014482Y-34545812D01*
X48134180Y-34509502D01*
X48244494Y-34450537D01*
X48341185Y-34371185D01*
X48420537Y-34274494D01*
X48479502Y-34164180D01*
X48515812Y-34044482D01*
X48528072Y-33920000D01*
X48525000Y-33305750D01*
X48366250Y-33147000D01*
X47117000Y-33147000D01*
X46863000Y-33147000D01*
X45613750Y-33147000D01*
X45455000Y-33305750D01*
X45451928Y-33920000D01*
X40487767Y-33920000D01*
X40568932Y-33821101D01*
X40702182Y-33571808D01*
X40784236Y-33301309D01*
X40811943Y-33020000D01*
X40784236Y-32738691D01*
X40702182Y-32468192D01*
X40568932Y-32218899D01*
X40487768Y-32120000D01*
X45451928Y-32120000D01*
X45455000Y-32734250D01*
X45613750Y-32893000D01*
X46863000Y-32893000D01*
X46863000Y-32873000D01*
X47117000Y-32873000D01*
X47117000Y-32893000D01*
X48366250Y-32893000D01*
X48525000Y-32734250D01*
X48528072Y-32120000D01*
X48515812Y-31995518D01*
X48479502Y-31875820D01*
X48420537Y-31765506D01*
X48341185Y-31668815D01*
X48244494Y-31589463D01*
X48134180Y-31530498D01*
X48115873Y-31524944D01*
X48182312Y-31458505D01*
X48350299Y-31207095D01*
X48466011Y-30927743D01*
X48525000Y-30631184D01*
X48525000Y-30328816D01*
X48466011Y-30032257D01*
X48350299Y-29752905D01*
X48182312Y-29501495D01*
X47968505Y-29287688D01*
X47717095Y-29119701D01*
X47437743Y-29003989D01*
X47141184Y-28945000D01*
X46838816Y-28945000D01*
X46542257Y-29003989D01*
X46262905Y-29119701D01*
X46011495Y-29287688D01*
X45797688Y-29501495D01*
X45629701Y-29752905D01*
X45513989Y-30032257D01*
X45455000Y-30328816D01*
X45455000Y-30631184D01*
X45513989Y-30927743D01*
X45629701Y-31207095D01*
X45797688Y-31458505D01*
X45864127Y-31524944D01*
X45845820Y-31530498D01*
X45735506Y-31589463D01*
X45638815Y-31668815D01*
X45559463Y-31765506D01*
X45500498Y-31875820D01*
X45464188Y-31995518D01*
X45451928Y-32120000D01*
X40487768Y-32120000D01*
X40389608Y-32000392D01*
X40171101Y-31821068D01*
X39921808Y-31687818D01*
X39651309Y-31605764D01*
X39440492Y-31585000D01*
X39299508Y-31585000D01*
X39088691Y-31605764D01*
X38818192Y-31687818D01*
X38760000Y-31718922D01*
X38760000Y-26060000D01*
X55220001Y-26060000D01*
X55220001Y-31718923D01*
X55220001Y-31718923D01*
G37*
X55220001Y-31718923D02*
X55161808Y-31687818D01*
X54891309Y-31605764D01*
X54680492Y-31585000D01*
X54539508Y-31585000D01*
X54328691Y-31605764D01*
X54058192Y-31687818D01*
X53808899Y-31821068D01*
X53590392Y-32000392D01*
X53411068Y-32218899D01*
X53389099Y-32260000D01*
X52107333Y-32260000D01*
X52070000Y-32256323D01*
X52032667Y-32260000D01*
X51921014Y-32270997D01*
X51777753Y-32314454D01*
X51645724Y-32385026D01*
X51529999Y-32479999D01*
X51435026Y-32595724D01*
X51364454Y-32727753D01*
X51320997Y-32871014D01*
X51306323Y-33020000D01*
X51310001Y-33057343D01*
X51310000Y-34800000D01*
X44487333Y-34800000D01*
X44450000Y-34796323D01*
X44412667Y-34800000D01*
X44301014Y-34810997D01*
X44157753Y-34854454D01*
X44025724Y-34925026D01*
X43909999Y-35019999D01*
X43815026Y-35135724D01*
X43744454Y-35267753D01*
X43700997Y-35411014D01*
X43686323Y-35560000D01*
X43690001Y-35597343D01*
X43690001Y-40380949D01*
X43587479Y-40278427D01*
X43218143Y-40031645D01*
X42807759Y-39861658D01*
X42372098Y-39775000D01*
X41927902Y-39775000D01*
X41492241Y-39861658D01*
X41081857Y-40031645D01*
X40751906Y-40252111D01*
X40702182Y-40088192D01*
X40568932Y-39838899D01*
X40389608Y-39620392D01*
X40171101Y-39441068D01*
X40038142Y-39370000D01*
X40171101Y-39298932D01*
X40389608Y-39119608D01*
X40568932Y-38901101D01*
X40702182Y-38651808D01*
X40784236Y-38381309D01*
X40811943Y-38100000D01*
X40784236Y-37818691D01*
X40702182Y-37548192D01*
X40568932Y-37298899D01*
X40389608Y-37080392D01*
X40171101Y-36901068D01*
X40038142Y-36830000D01*
X40171101Y-36758932D01*
X40389608Y-36579608D01*
X40568932Y-36361101D01*
X40702182Y-36111808D01*
X40784236Y-35841309D01*
X40811943Y-35560000D01*
X40784236Y-35278691D01*
X40702182Y-35008192D01*
X40568932Y-34758899D01*
X40389608Y-34540392D01*
X40171101Y-34361068D01*
X40038142Y-34290000D01*
X40171101Y-34218932D01*
X40389608Y-34039608D01*
X40487767Y-33920000D01*
X45451928Y-33920000D01*
X45464188Y-34044482D01*
X45500498Y-34164180D01*
X45559463Y-34274494D01*
X45638815Y-34371185D01*
X45735506Y-34450537D01*
X45845820Y-34509502D01*
X45965518Y-34545812D01*
X46090000Y-34558072D01*
X46704250Y-34555000D01*
X46863000Y-34396250D01*
X46863000Y-33147000D01*
X47117000Y-33147000D01*
X47117000Y-34396250D01*
X47275750Y-34555000D01*
X47890000Y-34558072D01*
X48014482Y-34545812D01*
X48134180Y-34509502D01*
X48244494Y-34450537D01*
X48341185Y-34371185D01*
X48420537Y-34274494D01*
X48479502Y-34164180D01*
X48515812Y-34044482D01*
X48528072Y-33920000D01*
X48525000Y-33305750D01*
X48366250Y-33147000D01*
X47117000Y-33147000D01*
X46863000Y-33147000D01*
X45613750Y-33147000D01*
X45455000Y-33305750D01*
X45451928Y-33920000D01*
X40487767Y-33920000D01*
X40568932Y-33821101D01*
X40702182Y-33571808D01*
X40784236Y-33301309D01*
X40811943Y-33020000D01*
X40784236Y-32738691D01*
X40702182Y-32468192D01*
X40568932Y-32218899D01*
X40487768Y-32120000D01*
X45451928Y-32120000D01*
X45455000Y-32734250D01*
X45613750Y-32893000D01*
X46863000Y-32893000D01*
X46863000Y-32873000D01*
X47117000Y-32873000D01*
X47117000Y-32893000D01*
X48366250Y-32893000D01*
X48525000Y-32734250D01*
X48528072Y-32120000D01*
X48515812Y-31995518D01*
X48479502Y-31875820D01*
X48420537Y-31765506D01*
X48341185Y-31668815D01*
X48244494Y-31589463D01*
X48134180Y-31530498D01*
X48115873Y-31524944D01*
X48182312Y-31458505D01*
X48350299Y-31207095D01*
X48466011Y-30927743D01*
X48525000Y-30631184D01*
X48525000Y-30328816D01*
X48466011Y-30032257D01*
X48350299Y-29752905D01*
X48182312Y-29501495D01*
X47968505Y-29287688D01*
X47717095Y-29119701D01*
X47437743Y-29003989D01*
X47141184Y-28945000D01*
X46838816Y-28945000D01*
X46542257Y-29003989D01*
X46262905Y-29119701D01*
X46011495Y-29287688D01*
X45797688Y-29501495D01*
X45629701Y-29752905D01*
X45513989Y-30032257D01*
X45455000Y-30328816D01*
X45455000Y-30631184D01*
X45513989Y-30927743D01*
X45629701Y-31207095D01*
X45797688Y-31458505D01*
X45864127Y-31524944D01*
X45845820Y-31530498D01*
X45735506Y-31589463D01*
X45638815Y-31668815D01*
X45559463Y-31765506D01*
X45500498Y-31875820D01*
X45464188Y-31995518D01*
X45451928Y-32120000D01*
X40487768Y-32120000D01*
X40389608Y-32000392D01*
X40171101Y-31821068D01*
X39921808Y-31687818D01*
X39651309Y-31605764D01*
X39440492Y-31585000D01*
X39299508Y-31585000D01*
X39088691Y-31605764D01*
X38818192Y-31687818D01*
X38760000Y-31718922D01*
X38760000Y-26060000D01*
X55220001Y-26060000D01*
X55220001Y-31718923D01*
M02*
