G04 #@! TF.GenerationSoftware,KiCad,Pcbnew,(5.1.2)-2*
G04 #@! TF.CreationDate,2019-07-05T08:21:06+01:00*
G04 #@! TF.ProjectId,mod_synth_clk,6d6f645f-7379-46e7-9468-5f636c6b2e6b,rev?*
G04 #@! TF.SameCoordinates,Original*
G04 #@! TF.FileFunction,Copper,L1,Top*
G04 #@! TF.FilePolarity,Positive*
%FSLAX46Y46*%
G04 Gerber Fmt 4.6, Leading zero omitted, Abs format (unit mm)*
G04 Created by KiCad (PCBNEW (5.1.2)-2) date 2019-07-05 08:21:06*
%MOMM*%
%LPD*%
G04 APERTURE LIST*
%ADD10O,1.727200X1.727200*%
%ADD11R,1.727200X1.727200*%
%ADD12C,3.240000*%
%ADD13C,1.800000*%
%ADD14R,1.800000X1.800000*%
%ADD15O,1.600000X1.600000*%
%ADD16C,1.600000*%
%ADD17C,2.130000*%
%ADD18R,1.830000X1.930000*%
%ADD19R,1.600000X1.600000*%
%ADD20C,0.250000*%
G04 APERTURE END LIST*
D10*
X48260000Y-99060000D03*
X45720000Y-99060000D03*
X48260000Y-101600000D03*
X45720000Y-101600000D03*
X48260000Y-104140000D03*
X45720000Y-104140000D03*
X48260000Y-106680000D03*
X45720000Y-106680000D03*
X48260000Y-109220000D03*
X45720000Y-109220000D03*
X48260000Y-111760000D03*
X45720000Y-111760000D03*
X48260000Y-114300000D03*
X45720000Y-114300000D03*
X48260000Y-116840000D03*
D11*
X45720000Y-116840000D03*
D12*
X42150000Y-57270000D03*
X51750000Y-57270000D03*
D13*
X49450000Y-64770000D03*
X46950000Y-64770000D03*
D14*
X44450000Y-64770000D03*
D12*
X42150000Y-42030000D03*
X51750000Y-42030000D03*
D13*
X49450000Y-49530000D03*
X46950000Y-49530000D03*
D14*
X44450000Y-49530000D03*
D15*
X52070000Y-85090000D03*
D16*
X52070000Y-74930000D03*
D15*
X44450000Y-85090000D03*
D16*
X44450000Y-74930000D03*
D17*
X52040000Y-132080000D03*
D18*
X40640000Y-132080000D03*
D17*
X43740000Y-132080000D03*
D13*
X46990000Y-30480000D03*
D14*
X46990000Y-33020000D03*
D15*
X48260000Y-83820000D03*
D19*
X48260000Y-76200000D03*
D15*
X54610000Y-33020000D03*
X39370000Y-33020000D03*
X54610000Y-68580000D03*
X39370000Y-35560000D03*
X54610000Y-66040000D03*
X39370000Y-38100000D03*
X54610000Y-63500000D03*
X39370000Y-40640000D03*
X54610000Y-60960000D03*
X39370000Y-43180000D03*
X54610000Y-58420000D03*
X39370000Y-45720000D03*
X54610000Y-55880000D03*
X39370000Y-48260000D03*
X54610000Y-53340000D03*
X39370000Y-50800000D03*
X54610000Y-50800000D03*
X39370000Y-53340000D03*
X54610000Y-48260000D03*
X39370000Y-55880000D03*
X54610000Y-45720000D03*
X39370000Y-58420000D03*
X54610000Y-43180000D03*
X39370000Y-60960000D03*
X54610000Y-40640000D03*
X39370000Y-63500000D03*
X54610000Y-38100000D03*
X39370000Y-66040000D03*
X54610000Y-35560000D03*
D19*
X39370000Y-68580000D03*
D20*
X48260000Y-83820000D02*
X48260000Y-85090000D01*
X48260000Y-85090000D02*
X52070000Y-85090000D01*
X45720000Y-104140000D02*
X41910000Y-104140000D01*
X41910000Y-104140000D02*
X41910000Y-69850000D01*
X41910000Y-69850000D02*
X49530000Y-69850000D01*
X49450000Y-69770000D02*
X49450000Y-64770000D01*
X49530000Y-69850000D02*
X49450000Y-69770000D01*
X44450000Y-74930000D02*
X48260000Y-74930000D01*
X48260000Y-74930000D02*
X48260000Y-76200000D01*
X52070000Y-62230000D02*
X52070000Y-74930000D01*
X48260000Y-62230000D02*
X52070000Y-62230000D01*
X49530000Y-30480000D02*
X49530000Y-45720000D01*
X49530000Y-45720000D02*
X50800000Y-45720000D01*
X50800000Y-45720000D02*
X50800000Y-54610000D01*
X46990000Y-30480000D02*
X49530000Y-30480000D01*
X50800000Y-54610000D02*
X48260000Y-54610000D01*
X48260000Y-54610000D02*
X48260000Y-62230000D01*
X52040000Y-132080000D02*
X52040000Y-90200000D01*
X52040000Y-90200000D02*
X52010000Y-90170000D01*
X52010000Y-90170000D02*
X44450000Y-90170000D01*
X44450000Y-90170000D02*
X44450000Y-85090000D01*
M02*
